<?xml version="1.0" encoding="UTF-8"?>
<svg width="1600" height="900" viewBox="0 0 1600 900" fill="none" xmlns="http://www.w3.org/2000/svg">
  <defs>
    <linearGradient id="bg" x1="0" y1="0" x2="1600" y2="900" gradientUnits="userSpaceOnUse">
      <stop offset="0%" stop-color="#0E1626" />
      <stop offset="100%" stop-color="#264363" />
    </linearGradient>
  </defs>
  <rect width="1600" height="900" fill="url(#bg)" />
  <circle cx="1290" cy="150" r="310" fill="rgba(126, 231, 198, 0.18)" />
  <circle cx="130" cy="770" r="220" fill="rgba(253, 230, 138, 0.12)" />
  <path d="M -120 150 L 240 30 L 1180 900 L 820 900 Z" fill="rgba(255,255,255,0.04)" />
  <g stroke="rgba(126, 231, 198, 0.1)" stroke-width="1">
    <line x1="0" y1="0" x2="0" y2="900" /><line x1="88" y1="0" x2="88" y2="900" /><line x1="176" y1="0" x2="176" y2="900" /><line x1="264" y1="0" x2="264" y2="900" /><line x1="352" y1="0" x2="352" y2="900" /><line x1="440" y1="0" x2="440" y2="900" /><line x1="528" y1="0" x2="528" y2="900" /><line x1="616" y1="0" x2="616" y2="900" /><line x1="704" y1="0" x2="704" y2="900" /><line x1="792" y1="0" x2="792" y2="900" /><line x1="880" y1="0" x2="880" y2="900" /><line x1="968" y1="0" x2="968" y2="900" /><line x1="1056" y1="0" x2="1056" y2="900" /><line x1="1144" y1="0" x2="1144" y2="900" /><line x1="1232" y1="0" x2="1232" y2="900" /><line x1="1320" y1="0" x2="1320" y2="900" /><line x1="1408" y1="0" x2="1408" y2="900" /><line x1="1496" y1="0" x2="1496" y2="900" />
    <line x1="0" y1="0" x2="1600" y2="0" /><line x1="0" y1="88" x2="1600" y2="88" /><line x1="0" y1="176" x2="1600" y2="176" /><line x1="0" y1="264" x2="1600" y2="264" /><line x1="0" y1="352" x2="1600" y2="352" /><line x1="0" y1="440" x2="1600" y2="440" /><line x1="0" y1="528" x2="1600" y2="528" /><line x1="0" y1="616" x2="1600" y2="616" /><line x1="0" y1="704" x2="1600" y2="704" /><line x1="0" y1="792" x2="1600" y2="792" /><line x1="0" y1="880" x2="1600" y2="880" /><line x1="0" y1="968" x2="1600" y2="968" />
  </g>
  <rect x="88" y="84" width="360" height="58" rx="28" fill="rgba(255,255,255,0.08)" />
  <rect x="88" y="162" width="284" height="26" rx="13" fill="rgba(255,255,255,0.08)" />
  <rect x="88" y="204" width="232" height="18" rx="9" fill="rgba(255,255,255,0.08)" />
  
    
    <rect x="236" y="228" width="260" height="320" rx="28" fill="rgba(244, 247, 251, 0.9)" stroke="rgba(255, 255, 255, 0.72)" stroke-width="4" />
    <rect x="308" y="204" width="116" height="58" rx="22" fill="#7EE7C6" />
    
      <line x1="272" y1="314" x2="292" y2="330" stroke="#7EE7C6" stroke-width="5" stroke-linecap="round" />
      <line x1="292" y1="330" x2="314" y2="296" stroke="#7EE7C6" stroke-width="5" stroke-linecap="round" />
      <line x1="326" y1="312" x2="450" y2="312" stroke="rgba(126, 231, 198, 0.58)" stroke-width="5" stroke-linecap="round" />
    
      <line x1="272" y1="368" x2="292" y2="384" stroke="#7EE7C6" stroke-width="5" stroke-linecap="round" />
      <line x1="292" y1="384" x2="314" y2="350" stroke="#7EE7C6" stroke-width="5" stroke-linecap="round" />
      <line x1="326" y1="366" x2="450" y2="366" stroke="rgba(126, 231, 198, 0.58)" stroke-width="5" stroke-linecap="round" />
    
      <line x1="272" y1="422" x2="292" y2="438" stroke="#7EE7C6" stroke-width="5" stroke-linecap="round" />
      <line x1="292" y1="438" x2="314" y2="404" stroke="#7EE7C6" stroke-width="5" stroke-linecap="round" />
      <line x1="326" y1="420" x2="450" y2="420" stroke="rgba(126, 231, 198, 0.58)" stroke-width="5" stroke-linecap="round" />
    
      <line x1="272" y1="476" x2="292" y2="492" stroke="#7EE7C6" stroke-width="5" stroke-linecap="round" />
      <line x1="292" y1="492" x2="314" y2="458" stroke="#7EE7C6" stroke-width="5" stroke-linecap="round" />
      <line x1="326" y1="474" x2="450" y2="474" stroke="rgba(126, 231, 198, 0.58)" stroke-width="5" stroke-linecap="round" />
    
  
    
    <path d="
    M 1003.2 290.6
    C 1003.2 213.2, 1051.8 173.6, 1086 173.6
    C 1120.2 173.6, 1168.8 213.2, 1168.8 290.6
    L 1150.8 409.4
    L 1086 490.4
    L 1021.2 409.4
    Z
  " fill="rgba(126, 231, 198, 0.88)" stroke="rgba(255, 255, 255, 0.7)" stroke-width="7.2" />
    <polyline points="1048.2,342.8 1078.8,375.2 1134.6,306.8" fill="none" stroke="#FDE68A" stroke-width="14.4" stroke-linecap="round" stroke-linejoin="round"  />
  
    
    
    <rect x="842" y="562" width="552" height="152" rx="28" fill="rgba(255,255,255,0.08)" stroke="rgba(126, 231, 198, 0.45)" stroke-width="2" />
  
    <g stroke="rgba(255, 255, 255, 0.14)" stroke-width="1">
      <line x1="866" y1="600" x2="1370" y2="600" />
      <line x1="866" y1="638" x2="1370" y2="638" />
      <line x1="866" y1="676" x2="1370" y2="676" />
    </g>
    <polyline points="884,632 974,566 1092,594 1204,496 1312,536 1346,634" fill="none" stroke="#7EE7C6" stroke-width="7" stroke-linecap="round" stroke-linejoin="round"  />
    <g fill="#FDE68A">
      <circle cx="974" cy="566" r="7" />
      <circle cx="1092" cy="594" r="7" />
      <circle cx="1204" cy="496" r="7" />
      <circle cx="1312" cy="536" r="7" />
      <circle cx="1346" cy="634" r="7" />
    </g>
  
  
</svg>