<?xml version="1.0" encoding="UTF-8"?>
<svg width="1600" height="900" viewBox="0 0 1600 900" fill="none" xmlns="http://www.w3.org/2000/svg">
  <defs>
    <linearGradient id="bg" x1="0" y1="0" x2="1600" y2="900" gradientUnits="userSpaceOnUse">
      <stop offset="0%" stop-color="#171023" />
      <stop offset="100%" stop-color="#7A294D" />
    </linearGradient>
  </defs>
  <rect width="1600" height="900" fill="url(#bg)" />
  <circle cx="1290" cy="150" r="310" fill="rgba(255, 179, 123, 0.18)" />
  <circle cx="130" cy="770" r="220" fill="rgba(255, 215, 109, 0.12)" />
  <path d="M -120 150 L 240 30 L 1180 900 L 820 900 Z" fill="rgba(255,255,255,0.04)" />
  <g stroke="rgba(255, 179, 123, 0.1)" stroke-width="1">
    <line x1="0" y1="0" x2="0" y2="900" /><line x1="88" y1="0" x2="88" y2="900" /><line x1="176" y1="0" x2="176" y2="900" /><line x1="264" y1="0" x2="264" y2="900" /><line x1="352" y1="0" x2="352" y2="900" /><line x1="440" y1="0" x2="440" y2="900" /><line x1="528" y1="0" x2="528" y2="900" /><line x1="616" y1="0" x2="616" y2="900" /><line x1="704" y1="0" x2="704" y2="900" /><line x1="792" y1="0" x2="792" y2="900" /><line x1="880" y1="0" x2="880" y2="900" /><line x1="968" y1="0" x2="968" y2="900" /><line x1="1056" y1="0" x2="1056" y2="900" /><line x1="1144" y1="0" x2="1144" y2="900" /><line x1="1232" y1="0" x2="1232" y2="900" /><line x1="1320" y1="0" x2="1320" y2="900" /><line x1="1408" y1="0" x2="1408" y2="900" /><line x1="1496" y1="0" x2="1496" y2="900" />
    <line x1="0" y1="0" x2="1600" y2="0" /><line x1="0" y1="88" x2="1600" y2="88" /><line x1="0" y1="176" x2="1600" y2="176" /><line x1="0" y1="264" x2="1600" y2="264" /><line x1="0" y1="352" x2="1600" y2="352" /><line x1="0" y1="440" x2="1600" y2="440" /><line x1="0" y1="528" x2="1600" y2="528" /><line x1="0" y1="616" x2="1600" y2="616" /><line x1="0" y1="704" x2="1600" y2="704" /><line x1="0" y1="792" x2="1600" y2="792" /><line x1="0" y1="880" x2="1600" y2="880" /><line x1="0" y1="968" x2="1600" y2="968" />
  </g>
  <rect x="88" y="84" width="360" height="58" rx="28" fill="rgba(255,255,255,0.08)" />
  <rect x="88" y="162" width="284" height="26" rx="13" fill="rgba(255,255,255,0.08)" />
  <rect x="88" y="204" width="232" height="18" rx="9" fill="rgba(255,255,255,0.08)" />
  
    
    <circle cx="1184" cy="306" r="92" fill="none" stroke="#FFD76D" stroke-width="16" />
    <circle cx="1184" cy="306" r="58" fill="none" stroke="#FFB37B" stroke-width="12" />
    <circle cx="1184" cy="306" r="24" fill="#FFB37B" />
    <polyline points="1294,186 1214,266" fill="none" stroke="#FFFFFF" stroke-width="8" stroke-linecap="round" stroke-linejoin="round"  />
    <line x1="1214" y1="266" x2="1240" y2="264" stroke="#FFFFFF" stroke-width="8" stroke-linecap="round" />
    <line x1="1214" y1="266" x2="1216" y2="292" stroke="#FFFFFF" stroke-width="8" stroke-linecap="round" />
  
    <polygon points="270,360 470,282 470,448 270,370" fill="#FFB37B" />
    <rect x="218" y="354" width="78" height="142" rx="20" fill="#FFD76D" />
    
    <circle cx="600" cy="570" r="46" fill="#FFD76D" />
    <circle cx="498" cy="592" r="36" fill="#FFB37B" />
    <circle cx="702" cy="592" r="36" fill="#FFB37B" />
    <rect x="514" y="630" width="172" height="94" rx="36" fill="#FFD76D" />
    <rect x="432" y="646" width="106" height="70" rx="30" fill="#FFB37B" />
    <rect x="662" y="646" width="106" height="70" rx="30" fill="#FFB37B" />
  
  
</svg>