<?xml version="1.0" encoding="UTF-8"?>
<svg width="1600" height="900" viewBox="0 0 1600 900" fill="none" xmlns="http://www.w3.org/2000/svg">
  <defs>
    <linearGradient id="bg" x1="0" y1="0" x2="1600" y2="900" gradientUnits="userSpaceOnUse">
      <stop offset="0%" stop-color="#14111F" />
      <stop offset="100%" stop-color="#52406B" />
    </linearGradient>
  </defs>
  <rect width="1600" height="900" fill="url(#bg)" />
  <circle cx="1290" cy="150" r="310" fill="rgba(255, 210, 122, 0.18)" />
  <circle cx="130" cy="770" r="220" fill="rgba(233, 213, 255, 0.12)" />
  <path d="M -120 150 L 240 30 L 1180 900 L 820 900 Z" fill="rgba(255,255,255,0.04)" />
  <g stroke="rgba(255, 210, 122, 0.1)" stroke-width="1">
    <line x1="0" y1="0" x2="0" y2="900" /><line x1="88" y1="0" x2="88" y2="900" /><line x1="176" y1="0" x2="176" y2="900" /><line x1="264" y1="0" x2="264" y2="900" /><line x1="352" y1="0" x2="352" y2="900" /><line x1="440" y1="0" x2="440" y2="900" /><line x1="528" y1="0" x2="528" y2="900" /><line x1="616" y1="0" x2="616" y2="900" /><line x1="704" y1="0" x2="704" y2="900" /><line x1="792" y1="0" x2="792" y2="900" /><line x1="880" y1="0" x2="880" y2="900" /><line x1="968" y1="0" x2="968" y2="900" /><line x1="1056" y1="0" x2="1056" y2="900" /><line x1="1144" y1="0" x2="1144" y2="900" /><line x1="1232" y1="0" x2="1232" y2="900" /><line x1="1320" y1="0" x2="1320" y2="900" /><line x1="1408" y1="0" x2="1408" y2="900" /><line x1="1496" y1="0" x2="1496" y2="900" />
    <line x1="0" y1="0" x2="1600" y2="0" /><line x1="0" y1="88" x2="1600" y2="88" /><line x1="0" y1="176" x2="1600" y2="176" /><line x1="0" y1="264" x2="1600" y2="264" /><line x1="0" y1="352" x2="1600" y2="352" /><line x1="0" y1="440" x2="1600" y2="440" /><line x1="0" y1="528" x2="1600" y2="528" /><line x1="0" y1="616" x2="1600" y2="616" /><line x1="0" y1="704" x2="1600" y2="704" /><line x1="0" y1="792" x2="1600" y2="792" /><line x1="0" y1="880" x2="1600" y2="880" /><line x1="0" y1="968" x2="1600" y2="968" />
  </g>
  <rect x="88" y="84" width="360" height="58" rx="28" fill="rgba(255,255,255,0.08)" />
  <rect x="88" y="162" width="284" height="26" rx="13" fill="rgba(255,255,255,0.08)" />
  <rect x="88" y="204" width="232" height="18" rx="9" fill="rgba(255,255,255,0.08)" />
  
    
    <rect x="252" y="214" width="332" height="420" rx="24" fill="rgba(244, 247, 251, 0.92)" stroke="rgba(255, 210, 122, 0.72)" stroke-width="4" />
    <line x1="294" y1="272" x2="536" y2="272" stroke="rgba(255, 210, 122, 0.42)" stroke-width="6" stroke-linecap="round" />
    <line x1="294" y1="312" x2="536" y2="312" stroke="rgba(255, 210, 122, 0.42)" stroke-width="6" stroke-linecap="round" />
    <line x1="294" y1="352" x2="536" y2="352" stroke="rgba(255, 210, 122, 0.42)" stroke-width="6" stroke-linecap="round" />
    <line x1="294" y1="392" x2="536" y2="392" stroke="rgba(255, 210, 122, 0.42)" stroke-width="6" stroke-linecap="round" />
    <circle cx="512" cy="560" r="36" fill="#E9D5FF" />
    <circle cx="512" cy="560" r="16" fill="rgba(255, 255, 255, 0.68)" />
  
    
    <path d="
    M 1035.68 323.84000000000003
    C 1035.68 241.28, 1087.52 199.04000000000002, 1124 199.04000000000002
    C 1160.48 199.04000000000002, 1212.32 241.28, 1212.32 323.84000000000003
    L 1193.12 450.56
    L 1124 536.96
    L 1054.88 450.56
    Z
  " fill="rgba(255, 210, 122, 0.88)" stroke="rgba(255, 255, 255, 0.7)" stroke-width="7.68" />
    <polyline points="1083.68,379.52 1116.32,414.08 1175.84,341.12" fill="none" stroke="#E9D5FF" stroke-width="15.36" stroke-linecap="round" stroke-linejoin="round"  />
  
    
    <rect x="860" y="578" width="430" height="140" rx="28" fill="rgba(255,255,255,0.08)" stroke="rgba(233, 213, 255, 0.45)" stroke-width="2" />
  
    <text x="972" y="642" fill="#E9D5FF" font-family="Segoe UI, Arial, sans-serif" font-size="30" font-weight="700">REG</text>
  
</svg>