<?xml version="1.0" encoding="UTF-8"?>
<svg width="1600" height="900" viewBox="0 0 1600 900" fill="none" xmlns="http://www.w3.org/2000/svg">
  <defs>
    <linearGradient id="bg" x1="0" y1="0" x2="1600" y2="900" gradientUnits="userSpaceOnUse">
      <stop offset="0%" stop-color="#0A1422" />
      <stop offset="100%" stop-color="#1A4A62" />
    </linearGradient>
  </defs>
  <rect width="1600" height="900" fill="url(#bg)" />
  <circle cx="1290" cy="150" r="310" fill="rgba(111, 247, 217, 0.18)" />
  <circle cx="130" cy="770" r="220" fill="rgba(96, 165, 250, 0.12)" />
  <path d="M -120 150 L 240 30 L 1180 900 L 820 900 Z" fill="rgba(255,255,255,0.04)" />
  <g stroke="rgba(111, 247, 217, 0.1)" stroke-width="1">
    <line x1="0" y1="0" x2="0" y2="900" /><line x1="88" y1="0" x2="88" y2="900" /><line x1="176" y1="0" x2="176" y2="900" /><line x1="264" y1="0" x2="264" y2="900" /><line x1="352" y1="0" x2="352" y2="900" /><line x1="440" y1="0" x2="440" y2="900" /><line x1="528" y1="0" x2="528" y2="900" /><line x1="616" y1="0" x2="616" y2="900" /><line x1="704" y1="0" x2="704" y2="900" /><line x1="792" y1="0" x2="792" y2="900" /><line x1="880" y1="0" x2="880" y2="900" /><line x1="968" y1="0" x2="968" y2="900" /><line x1="1056" y1="0" x2="1056" y2="900" /><line x1="1144" y1="0" x2="1144" y2="900" /><line x1="1232" y1="0" x2="1232" y2="900" /><line x1="1320" y1="0" x2="1320" y2="900" /><line x1="1408" y1="0" x2="1408" y2="900" /><line x1="1496" y1="0" x2="1496" y2="900" />
    <line x1="0" y1="0" x2="1600" y2="0" /><line x1="0" y1="88" x2="1600" y2="88" /><line x1="0" y1="176" x2="1600" y2="176" /><line x1="0" y1="264" x2="1600" y2="264" /><line x1="0" y1="352" x2="1600" y2="352" /><line x1="0" y1="440" x2="1600" y2="440" /><line x1="0" y1="528" x2="1600" y2="528" /><line x1="0" y1="616" x2="1600" y2="616" /><line x1="0" y1="704" x2="1600" y2="704" /><line x1="0" y1="792" x2="1600" y2="792" /><line x1="0" y1="880" x2="1600" y2="880" /><line x1="0" y1="968" x2="1600" y2="968" />
  </g>
  <rect x="88" y="84" width="360" height="58" rx="28" fill="rgba(255,255,255,0.08)" />
  <rect x="88" y="162" width="284" height="26" rx="13" fill="rgba(255,255,255,0.08)" />
  <rect x="88" y="204" width="232" height="18" rx="9" fill="rgba(255,255,255,0.08)" />
  
    
    
    <rect x="836" y="180" width="610" height="288" rx="28" fill="rgba(255,255,255,0.08)" stroke="rgba(111, 247, 217, 0.45)" stroke-width="2" />
  
    <g stroke="rgba(255, 255, 255, 0.14)" stroke-width="1">
      <line x1="860" y1="252" x2="1422" y2="252" />
      <line x1="860" y1="324" x2="1422" y2="324" />
      <line x1="860" y1="396" x2="1422" y2="396" />
    </g>
    <polyline points="878,386 968,320 1086,348 1198,250 1306,290 1398,252" fill="none" stroke="#6FF7D9" stroke-width="7" stroke-linecap="round" stroke-linejoin="round"  />
    <g fill="#60A5FA">
      <circle cx="968" cy="320" r="7" />
      <circle cx="1086" cy="348" r="7" />
      <circle cx="1198" cy="250" r="7" />
      <circle cx="1306" cy="290" r="7" />
      <circle cx="1398" cy="252" r="7" />
    </g>
  
    
    <path d="
    M 1118.32 581.16
    C 1118.32 534.72, 1147.48 510.96, 1168 510.96
    C 1188.52 510.96, 1217.68 534.72, 1217.68 581.16
    L 1206.88 652.44
    L 1168 701.04
    L 1129.12 652.44
    Z
  " fill="rgba(111, 247, 217, 0.88)" stroke="rgba(255, 255, 255, 0.7)" stroke-width="4.32" />
    <polyline points="1145.32,612.48 1163.68,631.92 1197.16,590.88" fill="none" stroke="#60A5FA" stroke-width="8.64" stroke-linecap="round" stroke-linejoin="round"  />
  
    <circle cx="328" cy="328" r="72" fill="none" stroke="#60A5FA" stroke-width="10" />
    <circle cx="480" cy="442" r="88" fill="none" stroke="#60A5FA" stroke-width="10" />
    <circle cx="276" cy="526" r="62" fill="none" stroke="#60A5FA" stroke-width="10" />
  
</svg>