<?xml version="1.0" encoding="UTF-8"?>
<svg width="1600" height="900" viewBox="0 0 1600 900" fill="none" xmlns="http://www.w3.org/2000/svg">
  <defs>
    <linearGradient id="bg" x1="0" y1="0" x2="1600" y2="900" gradientUnits="userSpaceOnUse">
      <stop offset="0%" stop-color="#0C1224" />
      <stop offset="100%" stop-color="#173E64" />
    </linearGradient>
  </defs>
  <rect width="1600" height="900" fill="url(#bg)" />
  <circle cx="1290" cy="150" r="310" fill="rgba(108, 240, 210, 0.18)" />
  <circle cx="130" cy="770" r="220" fill="rgba(138, 208, 255, 0.12)" />
  <path d="M -120 150 L 240 30 L 1180 900 L 820 900 Z" fill="rgba(255,255,255,0.04)" />
  <g stroke="rgba(108, 240, 210, 0.1)" stroke-width="1">
    <line x1="0" y1="0" x2="0" y2="900" /><line x1="88" y1="0" x2="88" y2="900" /><line x1="176" y1="0" x2="176" y2="900" /><line x1="264" y1="0" x2="264" y2="900" /><line x1="352" y1="0" x2="352" y2="900" /><line x1="440" y1="0" x2="440" y2="900" /><line x1="528" y1="0" x2="528" y2="900" /><line x1="616" y1="0" x2="616" y2="900" /><line x1="704" y1="0" x2="704" y2="900" /><line x1="792" y1="0" x2="792" y2="900" /><line x1="880" y1="0" x2="880" y2="900" /><line x1="968" y1="0" x2="968" y2="900" /><line x1="1056" y1="0" x2="1056" y2="900" /><line x1="1144" y1="0" x2="1144" y2="900" /><line x1="1232" y1="0" x2="1232" y2="900" /><line x1="1320" y1="0" x2="1320" y2="900" /><line x1="1408" y1="0" x2="1408" y2="900" /><line x1="1496" y1="0" x2="1496" y2="900" />
    <line x1="0" y1="0" x2="1600" y2="0" /><line x1="0" y1="88" x2="1600" y2="88" /><line x1="0" y1="176" x2="1600" y2="176" /><line x1="0" y1="264" x2="1600" y2="264" /><line x1="0" y1="352" x2="1600" y2="352" /><line x1="0" y1="440" x2="1600" y2="440" /><line x1="0" y1="528" x2="1600" y2="528" /><line x1="0" y1="616" x2="1600" y2="616" /><line x1="0" y1="704" x2="1600" y2="704" /><line x1="0" y1="792" x2="1600" y2="792" /><line x1="0" y1="880" x2="1600" y2="880" /><line x1="0" y1="968" x2="1600" y2="968" />
  </g>
  <rect x="88" y="84" width="360" height="58" rx="28" fill="rgba(255,255,255,0.08)" />
  <rect x="88" y="162" width="284" height="26" rx="13" fill="rgba(255,255,255,0.08)" />
  <rect x="88" y="204" width="232" height="18" rx="9" fill="rgba(255,255,255,0.08)" />
  
    
    
    <rect x="840" y="188" width="598" height="298" rx="28" fill="rgba(255,255,255,0.08)" stroke="rgba(108, 240, 210, 0.45)" stroke-width="2" />
  
    <g stroke="rgba(255, 255, 255, 0.14)" stroke-width="1">
      <line x1="864" y1="262.5" x2="1414" y2="262.5" />
      <line x1="864" y1="337" x2="1414" y2="337" />
      <line x1="864" y1="411.5" x2="1414" y2="411.5" />
    </g>
    <polyline points="882,404 972,338 1090,366 1202,268 1310,308 1390,260" fill="none" stroke="#6CF0D2" stroke-width="7" stroke-linecap="round" stroke-linejoin="round"  />
    <g fill="#8AD0FF">
      <circle cx="972" cy="338" r="7" />
      <circle cx="1090" cy="366" r="7" />
      <circle cx="1202" cy="268" r="7" />
      <circle cx="1310" cy="308" r="7" />
      <circle cx="1390" cy="260" r="7" />
    </g>
  
    <circle cx="388" cy="366" r="152" fill="rgba(108, 240, 210, 0.18)" stroke="#6CF0D2" stroke-width="12" />
    <polyline points="292,262 394,366 504,262" fill="none" stroke="#FFFFFF" stroke-width="6" stroke-linecap="round" stroke-linejoin="round"  />
    <polyline points="394,366 312,466 484,466" fill="none" stroke="#FFFFFF" stroke-width="6" stroke-linecap="round" stroke-linejoin="round"  />
    <circle cx="292" cy="262" r="11" fill="#FFFFFF" opacity="0.78" />
    <circle cx="504" cy="262" r="11" fill="#FFFFFF" opacity="0.78" />
    <circle cx="394" cy="366" r="11" fill="#FFFFFF" opacity="0.78" />
    <circle cx="312" cy="466" r="11" fill="#FFFFFF" opacity="0.78" />
    <circle cx="484" cy="466" r="11" fill="#FFFFFF" opacity="0.78" />
  
</svg>