<?xml version="1.0" encoding="UTF-8"?>
<svg width="1600" height="900" viewBox="0 0 1600 900" fill="none" xmlns="http://www.w3.org/2000/svg">
  <defs>
    <linearGradient id="bg" x1="0" y1="0" x2="1600" y2="900" gradientUnits="userSpaceOnUse">
      <stop offset="0%" stop-color="#081526" />
      <stop offset="100%" stop-color="#154E75" />
    </linearGradient>
  </defs>
  <rect width="1600" height="900" fill="url(#bg)" />
  <circle cx="1290" cy="150" r="310" fill="rgba(125, 231, 255, 0.18)" />
  <circle cx="130" cy="770" r="220" fill="rgba(179, 242, 166, 0.12)" />
  <path d="M -120 150 L 240 30 L 1180 900 L 820 900 Z" fill="rgba(255,255,255,0.04)" />
  <g stroke="rgba(125, 231, 255, 0.1)" stroke-width="1">
    <line x1="0" y1="0" x2="0" y2="900" /><line x1="88" y1="0" x2="88" y2="900" /><line x1="176" y1="0" x2="176" y2="900" /><line x1="264" y1="0" x2="264" y2="900" /><line x1="352" y1="0" x2="352" y2="900" /><line x1="440" y1="0" x2="440" y2="900" /><line x1="528" y1="0" x2="528" y2="900" /><line x1="616" y1="0" x2="616" y2="900" /><line x1="704" y1="0" x2="704" y2="900" /><line x1="792" y1="0" x2="792" y2="900" /><line x1="880" y1="0" x2="880" y2="900" /><line x1="968" y1="0" x2="968" y2="900" /><line x1="1056" y1="0" x2="1056" y2="900" /><line x1="1144" y1="0" x2="1144" y2="900" /><line x1="1232" y1="0" x2="1232" y2="900" /><line x1="1320" y1="0" x2="1320" y2="900" /><line x1="1408" y1="0" x2="1408" y2="900" /><line x1="1496" y1="0" x2="1496" y2="900" />
    <line x1="0" y1="0" x2="1600" y2="0" /><line x1="0" y1="88" x2="1600" y2="88" /><line x1="0" y1="176" x2="1600" y2="176" /><line x1="0" y1="264" x2="1600" y2="264" /><line x1="0" y1="352" x2="1600" y2="352" /><line x1="0" y1="440" x2="1600" y2="440" /><line x1="0" y1="528" x2="1600" y2="528" /><line x1="0" y1="616" x2="1600" y2="616" /><line x1="0" y1="704" x2="1600" y2="704" /><line x1="0" y1="792" x2="1600" y2="792" /><line x1="0" y1="880" x2="1600" y2="880" /><line x1="0" y1="968" x2="1600" y2="968" />
  </g>
  <rect x="88" y="84" width="360" height="58" rx="28" fill="rgba(255,255,255,0.08)" />
  <rect x="88" y="162" width="284" height="26" rx="13" fill="rgba(255,255,255,0.08)" />
  <rect x="88" y="204" width="232" height="18" rx="9" fill="rgba(255,255,255,0.08)" />
  
    
    <circle cx="404" cy="346" r="166" fill="rgba(125, 231, 255, 0.18)" stroke="rgba(255, 255, 255, 0.68)" stroke-width="6" />
    <ellipse cx="404" cy="346" rx="102.92" ry="166" fill="none" stroke="#B3F2A6" stroke-width="4" opacity="0.9" />
    <ellipse cx="404" cy="346" rx="43.160000000000004" ry="166" fill="none" stroke="#B3F2A6" stroke-width="4" opacity="0.9" />
    <path d="M 238 346 Q 404 256.36 570 346" fill="none" stroke="#B3F2A6" stroke-width="4" opacity="0.9" />
    <path d="M 238 392.48 Q 404 448.92 570 392.48" fill="none" stroke="#B3F2A6" stroke-width="4" opacity="0.9" />
  
    
    
    <rect x="846" y="190" width="590" height="322" rx="28" fill="rgba(255,255,255,0.08)" stroke="rgba(125, 231, 255, 0.45)" stroke-width="2" />
  
    <g stroke="rgba(255, 255, 255, 0.14)" stroke-width="1">
      <line x1="870" y1="270.5" x2="1412" y2="270.5" />
      <line x1="870" y1="351" x2="1412" y2="351" />
      <line x1="870" y1="431.5" x2="1412" y2="431.5" />
    </g>
    <polyline points="888,430 978,364 1096,392 1208,294 1316,334 1388,262" fill="none" stroke="#7DE7FF" stroke-width="7" stroke-linecap="round" stroke-linejoin="round"  />
    <g fill="#B3F2A6">
      <circle cx="978" cy="364" r="7" />
      <circle cx="1096" cy="392" r="7" />
      <circle cx="1208" cy="294" r="7" />
      <circle cx="1316" cy="334" r="7" />
      <circle cx="1388" cy="262" r="7" />
    </g>
  
    
    <polyline points="222,572 374,518 522,546 686,454" fill="none" stroke="#B3F2A6" stroke-width="8" stroke-linecap="round" stroke-linejoin="round"  />
    <polygon points="686,454 658,436 668,408" fill="#B3F2A6" />
  
    
    <polyline points="686,670 560,622 402,644 246,598" fill="none" stroke="#7DE7FF" stroke-width="8" stroke-linecap="round" stroke-linejoin="round"  />
    <polygon points="246,598 218,580 228,552" fill="#7DE7FF" />
  
  
</svg>