<?xml version="1.0" encoding="UTF-8"?>
<svg width="1600" height="900" viewBox="0 0 1600 900" fill="none" xmlns="http://www.w3.org/2000/svg">
  <defs>
    <linearGradient id="bg" x1="0" y1="0" x2="1600" y2="900" gradientUnits="userSpaceOnUse">
      <stop offset="0%" stop-color="#0D1B2A" />
      <stop offset="100%" stop-color="#21506B" />
    </linearGradient>
  </defs>
  <rect width="1600" height="900" fill="url(#bg)" />
  <circle cx="1290" cy="150" r="310" fill="rgba(142, 227, 198, 0.18)" />
  <circle cx="130" cy="770" r="220" fill="rgba(240, 224, 138, 0.12)" />
  <path d="M -120 150 L 240 30 L 1180 900 L 820 900 Z" fill="rgba(255,255,255,0.04)" />
  <g stroke="rgba(142, 227, 198, 0.1)" stroke-width="1">
    <line x1="0" y1="0" x2="0" y2="900" /><line x1="88" y1="0" x2="88" y2="900" /><line x1="176" y1="0" x2="176" y2="900" /><line x1="264" y1="0" x2="264" y2="900" /><line x1="352" y1="0" x2="352" y2="900" /><line x1="440" y1="0" x2="440" y2="900" /><line x1="528" y1="0" x2="528" y2="900" /><line x1="616" y1="0" x2="616" y2="900" /><line x1="704" y1="0" x2="704" y2="900" /><line x1="792" y1="0" x2="792" y2="900" /><line x1="880" y1="0" x2="880" y2="900" /><line x1="968" y1="0" x2="968" y2="900" /><line x1="1056" y1="0" x2="1056" y2="900" /><line x1="1144" y1="0" x2="1144" y2="900" /><line x1="1232" y1="0" x2="1232" y2="900" /><line x1="1320" y1="0" x2="1320" y2="900" /><line x1="1408" y1="0" x2="1408" y2="900" /><line x1="1496" y1="0" x2="1496" y2="900" />
    <line x1="0" y1="0" x2="1600" y2="0" /><line x1="0" y1="88" x2="1600" y2="88" /><line x1="0" y1="176" x2="1600" y2="176" /><line x1="0" y1="264" x2="1600" y2="264" /><line x1="0" y1="352" x2="1600" y2="352" /><line x1="0" y1="440" x2="1600" y2="440" /><line x1="0" y1="528" x2="1600" y2="528" /><line x1="0" y1="616" x2="1600" y2="616" /><line x1="0" y1="704" x2="1600" y2="704" /><line x1="0" y1="792" x2="1600" y2="792" /><line x1="0" y1="880" x2="1600" y2="880" /><line x1="0" y1="968" x2="1600" y2="968" />
  </g>
  <rect x="88" y="84" width="360" height="58" rx="28" fill="rgba(255,255,255,0.08)" />
  <rect x="88" y="162" width="284" height="26" rx="13" fill="rgba(255,255,255,0.08)" />
  <rect x="88" y="204" width="232" height="18" rx="9" fill="rgba(255,255,255,0.08)" />
  
    
    <path d="
    M 988.8 305.4
    C 988.8 210.79999999999998, 1048.2 162.39999999999998, 1090 162.39999999999998
    C 1131.8 162.39999999999998, 1191.2 210.79999999999998, 1191.2 305.4
    L 1169.2 450.6
    L 1090 549.6
    L 1010.8 450.6
    Z
  " fill="rgba(142, 227, 198, 0.88)" stroke="rgba(255, 255, 255, 0.7)" stroke-width="8.8" />
    <polyline points="1043.8,369.2 1081.2,408.8 1149.4,325.2" fill="none" stroke="#F0E08A" stroke-width="17.6" stroke-linecap="round" stroke-linejoin="round"  />
  
    
    
    <rect x="168" y="506" width="584" height="246" rx="28" fill="rgba(255,255,255,0.08)" stroke="rgba(142, 227, 198, 0.45)" stroke-width="2" />
  
    <g stroke="rgba(255, 255, 255, 0.14)" stroke-width="1">
      <line x1="192" y1="567.5" x2="728" y2="567.5" />
      <line x1="192" y1="629" x2="728" y2="629" />
      <line x1="192" y1="690.5" x2="728" y2="690.5" />
    </g>
    <polyline points="210,670 300,604 418,632 530,534 638,574 704,578" fill="none" stroke="#8EE3C6" stroke-width="7" stroke-linecap="round" stroke-linejoin="round"  />
    <g fill="#F0E08A">
      <circle cx="300" cy="604" r="7" />
      <circle cx="418" cy="632" r="7" />
      <circle cx="530" cy="534" r="7" />
      <circle cx="638" cy="574" r="7" />
      <circle cx="704" cy="578" r="7" />
    </g>
  
    
    <rect x="820" y="562" width="270" height="170" rx="28" fill="rgba(255,255,255,0.08)" stroke="rgba(240, 224, 138, 0.45)" stroke-width="2" />
  
    <rect x="888" y="610" width="36" height="78" rx="12" fill="#F0E08A" />
    <rect x="952" y="576" width="36" height="112" rx="12" fill="#F0E08A" />
    <rect x="1016" y="540" width="36" height="148" rx="12" fill="#F0E08A" />
  
</svg>