<?xml version="1.0" encoding="UTF-8"?>
<svg width="1600" height="900" viewBox="0 0 1600 900" fill="none" xmlns="http://www.w3.org/2000/svg">
  <defs>
    <linearGradient id="bg" x1="0" y1="0" x2="1600" y2="900" gradientUnits="userSpaceOnUse">
      <stop offset="0%" stop-color="#071726" />
      <stop offset="100%" stop-color="#16446D" />
    </linearGradient>
  </defs>
  <rect width="1600" height="900" fill="url(#bg)" />
  <circle cx="1290" cy="150" r="310" fill="rgba(133, 240, 255, 0.18)" />
  <circle cx="130" cy="770" r="220" fill="rgba(103, 232, 249, 0.12)" />
  <path d="M -120 150 L 240 30 L 1180 900 L 820 900 Z" fill="rgba(255,255,255,0.04)" />
  <g stroke="rgba(133, 240, 255, 0.1)" stroke-width="1">
    <line x1="0" y1="0" x2="0" y2="900" /><line x1="88" y1="0" x2="88" y2="900" /><line x1="176" y1="0" x2="176" y2="900" /><line x1="264" y1="0" x2="264" y2="900" /><line x1="352" y1="0" x2="352" y2="900" /><line x1="440" y1="0" x2="440" y2="900" /><line x1="528" y1="0" x2="528" y2="900" /><line x1="616" y1="0" x2="616" y2="900" /><line x1="704" y1="0" x2="704" y2="900" /><line x1="792" y1="0" x2="792" y2="900" /><line x1="880" y1="0" x2="880" y2="900" /><line x1="968" y1="0" x2="968" y2="900" /><line x1="1056" y1="0" x2="1056" y2="900" /><line x1="1144" y1="0" x2="1144" y2="900" /><line x1="1232" y1="0" x2="1232" y2="900" /><line x1="1320" y1="0" x2="1320" y2="900" /><line x1="1408" y1="0" x2="1408" y2="900" /><line x1="1496" y1="0" x2="1496" y2="900" />
    <line x1="0" y1="0" x2="1600" y2="0" /><line x1="0" y1="88" x2="1600" y2="88" /><line x1="0" y1="176" x2="1600" y2="176" /><line x1="0" y1="264" x2="1600" y2="264" /><line x1="0" y1="352" x2="1600" y2="352" /><line x1="0" y1="440" x2="1600" y2="440" /><line x1="0" y1="528" x2="1600" y2="528" /><line x1="0" y1="616" x2="1600" y2="616" /><line x1="0" y1="704" x2="1600" y2="704" /><line x1="0" y1="792" x2="1600" y2="792" /><line x1="0" y1="880" x2="1600" y2="880" /><line x1="0" y1="968" x2="1600" y2="968" />
  </g>
  <rect x="88" y="84" width="360" height="58" rx="28" fill="rgba(255,255,255,0.08)" />
  <rect x="88" y="162" width="284" height="26" rx="13" fill="rgba(255,255,255,0.08)" />
  <rect x="88" y="204" width="232" height="18" rx="9" fill="rgba(255,255,255,0.08)" />
  
    
    
    <rect x="858" y="170" width="570" height="240" rx="28" fill="rgba(255,255,255,0.08)" stroke="rgba(133, 240, 255, 0.45)" stroke-width="2" />
  
    <g stroke="rgba(255, 255, 255, 0.14)" stroke-width="1">
      <line x1="882" y1="230" x2="1404" y2="230" />
      <line x1="882" y1="290" x2="1404" y2="290" />
      <line x1="882" y1="350" x2="1404" y2="350" />
    </g>
    <polyline points="900,328 990,262 1108,290 1220,192 1328,232 1380,242" fill="none" stroke="#85F0FF" stroke-width="7" stroke-linecap="round" stroke-linejoin="round"  />
    <g fill="#67E8F9">
      <circle cx="990" cy="262" r="7" />
      <circle cx="1108" cy="290" r="7" />
      <circle cx="1220" cy="192" r="7" />
      <circle cx="1328" cy="232" r="7" />
      <circle cx="1380" cy="242" r="7" />
    </g>
  
    
    <rect x="858" y="448" width="570" height="120" rx="28" fill="rgba(255,255,255,0.08)" stroke="rgba(103, 232, 249, 0.45)" stroke-width="2" />
  
    
    <rect x="858" y="594" width="570" height="120" rx="28" fill="rgba(255,255,255,0.08)" stroke="rgba(133, 240, 255, 0.45)" stroke-width="2" />
  
    <polyline points="230,590 316,544 404,602 498,506 592,562 694,470" fill="none" stroke="#67E8F9" stroke-width="8" stroke-linecap="round" stroke-linejoin="round"  />
    <path d="M 208 348 A 170 170 0 0 1 548 348" fill="none" stroke="#85F0FF" stroke-width="12" />
    <path d="M 436 348 A 170 170 0 0 1 776 348" fill="none" stroke="#85F0FF" stroke-width="12" opacity="0.72" />
  
</svg>