<?xml version="1.0" encoding="UTF-8"?>
<svg width="1600" height="900" viewBox="0 0 1600 900" fill="none" xmlns="http://www.w3.org/2000/svg">
  <defs>
    <linearGradient id="bg" x1="0" y1="0" x2="1600" y2="900" gradientUnits="userSpaceOnUse">
      <stop offset="0%" stop-color="#071B30" />
      <stop offset="100%" stop-color="#234A84" />
    </linearGradient>
  </defs>
  <rect width="1600" height="900" fill="url(#bg)" />
  <circle cx="1290" cy="150" r="310" fill="rgba(124, 231, 255, 0.18)" />
  <circle cx="130" cy="770" r="220" fill="rgba(246, 198, 91, 0.12)" />
  <path d="M -120 150 L 240 30 L 1180 900 L 820 900 Z" fill="rgba(255,255,255,0.04)" />
  <g stroke="rgba(124, 231, 255, 0.1)" stroke-width="1">
    <line x1="0" y1="0" x2="0" y2="900" /><line x1="88" y1="0" x2="88" y2="900" /><line x1="176" y1="0" x2="176" y2="900" /><line x1="264" y1="0" x2="264" y2="900" /><line x1="352" y1="0" x2="352" y2="900" /><line x1="440" y1="0" x2="440" y2="900" /><line x1="528" y1="0" x2="528" y2="900" /><line x1="616" y1="0" x2="616" y2="900" /><line x1="704" y1="0" x2="704" y2="900" /><line x1="792" y1="0" x2="792" y2="900" /><line x1="880" y1="0" x2="880" y2="900" /><line x1="968" y1="0" x2="968" y2="900" /><line x1="1056" y1="0" x2="1056" y2="900" /><line x1="1144" y1="0" x2="1144" y2="900" /><line x1="1232" y1="0" x2="1232" y2="900" /><line x1="1320" y1="0" x2="1320" y2="900" /><line x1="1408" y1="0" x2="1408" y2="900" /><line x1="1496" y1="0" x2="1496" y2="900" />
    <line x1="0" y1="0" x2="1600" y2="0" /><line x1="0" y1="88" x2="1600" y2="88" /><line x1="0" y1="176" x2="1600" y2="176" /><line x1="0" y1="264" x2="1600" y2="264" /><line x1="0" y1="352" x2="1600" y2="352" /><line x1="0" y1="440" x2="1600" y2="440" /><line x1="0" y1="528" x2="1600" y2="528" /><line x1="0" y1="616" x2="1600" y2="616" /><line x1="0" y1="704" x2="1600" y2="704" /><line x1="0" y1="792" x2="1600" y2="792" /><line x1="0" y1="880" x2="1600" y2="880" /><line x1="0" y1="968" x2="1600" y2="968" />
  </g>
  <rect x="88" y="84" width="360" height="58" rx="28" fill="rgba(255,255,255,0.08)" />
  <rect x="88" y="162" width="284" height="26" rx="13" fill="rgba(255,255,255,0.08)" />
  <rect x="88" y="204" width="232" height="18" rx="9" fill="rgba(255,255,255,0.08)" />
  
    
    
    <rect x="820" y="164" width="650" height="360" rx="28" fill="rgba(255,255,255,0.08)" stroke="rgba(124, 231, 255, 0.45)" stroke-width="2" />
  
    <g stroke="rgba(255, 255, 255, 0.14)" stroke-width="1">
      <line x1="844" y1="254" x2="1446" y2="254" />
      <line x1="844" y1="344" x2="1446" y2="344" />
      <line x1="844" y1="434" x2="1446" y2="434" />
    </g>
    <polyline points="862,442 952,376 1070,404 1182,306 1290,346 1422,236" fill="none" stroke="#7CE7FF" stroke-width="7" stroke-linecap="round" stroke-linejoin="round"  />
    <g fill="#F6C65B">
      <circle cx="952" cy="376" r="7" />
      <circle cx="1070" cy="404" r="7" />
      <circle cx="1182" cy="306" r="7" />
      <circle cx="1290" cy="346" r="7" />
      <circle cx="1422" cy="236" r="7" />
    </g>
  
    
    <g>
      
        <line x1="258" y1="470" x2="258" y2="658" stroke="rgba(255, 255, 255, 0.74)" stroke-width="4" stroke-linecap="round" />
        <rect x="240" y="512" width="36" height="120" rx="8" fill="#7CE7FF" />
      
        <line x1="316" y1="508" x2="316" y2="696" stroke="rgba(255, 255, 255, 0.74)" stroke-width="4" stroke-linecap="round" />
        <rect x="298" y="568" width="36" height="90" rx="8" fill="#F6C65B" />
      
        <line x1="380" y1="402" x2="380" y2="676" stroke="rgba(255, 255, 255, 0.74)" stroke-width="4" stroke-linecap="round" />
        <rect x="362" y="458" width="36" height="144" rx="8" fill="#7CE7FF" />
      
        <line x1="446" y1="472" x2="446" y2="700" stroke="rgba(255, 255, 255, 0.74)" stroke-width="4" stroke-linecap="round" />
        <rect x="428" y="530" width="36" height="110" rx="8" fill="#F6C65B" />
      
        <line x1="512" y1="362" x2="512" y2="648" stroke="rgba(255, 255, 255, 0.74)" stroke-width="4" stroke-linecap="round" />
        <rect x="494" y="414" width="36" height="178" rx="8" fill="#7CE7FF" />
      
    </g>
  
    
    <polyline points="210,688 356,616 492,652 614,518 770,430" fill="none" stroke="#F6C65B" stroke-width="8" stroke-linecap="round" stroke-linejoin="round"  />
    <polygon points="770,430 742,412 752,384" fill="#F6C65B" />
  
    
    <rect x="878" y="574" width="238" height="164" rx="28" fill="rgba(255,255,255,0.08)" stroke="rgba(246, 198, 91, 0.45)" stroke-width="2" />
  
    
    <rect x="1144" y="574" width="284" height="164" rx="28" fill="rgba(255,255,255,0.08)" stroke="rgba(124, 231, 255, 0.45)" stroke-width="2" />
  
    <text x="948" y="642" fill="#F6C65B" font-family="Segoe UI, Arial, sans-serif" font-size="38" font-weight="700">01</text>
    <text x="1224" y="642" fill="#7CE7FF" font-family="Segoe UI, Arial, sans-serif" font-size="38" font-weight="700">02</text>
  
</svg>