<svg xmlns="http://www.w3.org/2000/svg" viewBox="0 0 120 120" fill="none">
  <defs>
    <linearGradient id="favicon-gradient-bottom" x1="32.6167" y1="7.7746" x2="21.657" y2="0.5106" gradientTransform="matrix(1 0 0 -1 0 38)" gradientUnits="userSpaceOnUse">
      <stop offset="0" stop-color="#01F8F5"/>
      <stop offset="0.9977" stop-color="#006EF0"/>
      <stop offset="1" stop-color="#006EF0"/>
    </linearGradient>
    <linearGradient id="favicon-gradient-top-left" x1="17.5174" y1="23.9749" x2="5.1578" y2="33.7585" gradientTransform="matrix(1 0 0 -1 0 38)" gradientUnits="userSpaceOnUse">
      <stop offset="0.4075" stop-color="#18C8FF"/>
      <stop offset="1" stop-color="#933FFE"/>
    </linearGradient>
    <linearGradient id="favicon-gradient-middle-right" x1="48.1691" y1="8.8396" x2="29.853" y2="21.0793" gradientTransform="matrix(1 0 0 -1 0 38)" gradientUnits="userSpaceOnUse">
      <stop offset="0" stop-color="#18C8FF"/>
      <stop offset="1" stop-color="#933FFE"/>
    </linearGradient>
    <linearGradient id="favicon-gradient-middle-left" x1="38.2904" y1="15.8211" x2="14.6076" y2="20.281" gradientTransform="matrix(1 0 0 -1 0 38)" gradientUnits="userSpaceOnUse">
      <stop offset="0" stop-color="#18C8FF"/>
      <stop offset="1" stop-color="#933FFE"/>
    </linearGradient>
    <linearGradient id="favicon-gradient-top-right" x1="31.0043" y1="25.5726" x2="14.8532" y2="38.0107" gradientTransform="matrix(1 0 0 -1 0 38)" gradientUnits="userSpaceOnUse">
      <stop offset="0" stop-color="#18C8FF"/>
      <stop offset="1" stop-color="#933FFE"/>
    </linearGradient>
  </defs>
  <g transform="translate(5 24) scale(1.9298245614)">
    <path fill="url(#favicon-gradient-bottom)" d="M47.9 26 30.3 35.7c-4 2.2-9 1.5-12.2-1.7l17.6-9.7c3.9-2.2 8.9-1.5 12.2 1.7Z"/>
    <path fill="url(#favicon-gradient-top-left)" d="M29.9 8 12.3 17.7c-4 2.2-9 1.5-12.2-1.7L17.7 6.3c3.9-2.3 8.9-1.5 12.2 1.7Z"/>
    <path fill="url(#favicon-gradient-middle-right)" d="M56.9 21 39.3 30.7c-4 2.2-9 1.5-12.2-1.7l17.6-9.7c4-2.2 9-1.5 12.2 1.7Z"/>
    <path fill="url(#favicon-gradient-middle-left)" d="m33.6 11.4 5.5 5.5-17.6 9.7c-4 2.2-9 1.5-12.2-1.7l24.3-13.5Z"/>
    <path fill="url(#favicon-gradient-top-right)" d="M38.9 3 21.3 12.7c-4 2.2-9 1.5-12.2-1.7L26.7 1.3C30.6-.9 35.6-.2 38.9 3Z"/>
  </g>
</svg>
