<svg width="160" height="40" viewBox="0 0 160 40" fill="none" xmlns="http://www.w3.org/2000/svg">
  <!-- Icon background -->
  <rect x="2" y="2" width="36" height="36" rx="8" fill="url(#bgGradient)"/>

  <!-- Candlestick chart -->
  <line x1="10" y1="20" x2="10" y2="14" stroke="white" stroke-width="1.5" stroke-linecap="round"/>
  <rect x="8" y="14" width="4" height="8" fill="white" rx="1"/>
  <line x1="10" y1="22" x2="10" y2="26" stroke="white" stroke-width="1.5" stroke-linecap="round"/>

  <line x1="17" y1="25" x2="17" y2="10" stroke="white" stroke-width="1.5" stroke-linecap="round"/>
  <rect x="15" y="16" width="4" height="9" fill="white" rx="1"/>
  <line x1="17" y1="25" x2="17" y2="28" stroke="white" stroke-width="1.5" stroke-linecap="round"/>

  <line x1="24" y1="18" x2="24" y2="12" stroke="white" stroke-width="1.5" stroke-linecap="round"/>
  <rect x="22" y="12" width="4" height="10" fill="white" rx="1"/>
  <line x1="24" y1="22" x2="24" y2="28" stroke="white" stroke-width="1.5" stroke-linecap="round"/>

  <line x1="31" y1="22" x2="31" y2="8" stroke="white" stroke-width="1.5" stroke-linecap="round"/>
  <rect x="29" y="14" width="4" height="8" fill="white" rx="1"/>
  <line x1="31" y1="22" x2="31" y2="30" stroke="white" stroke-width="1.5" stroke-linecap="round"/>

  <!-- Text -->
  <text x="46" y="17" font-family="Arial, sans-serif" font-size="13" font-weight="700" fill="#1e293b" letter-spacing="0.5">MAKE</text>
  <text x="46" y="30" font-family="Arial, sans-serif" font-size="13" font-weight="700" fill="#2563eb" letter-spacing="0.5">TRADES</text>

  <!-- Gradients -->
  <defs>
    <linearGradient id="bgGradient" x1="20" y1="2" x2="20" y2="38" gradientUnits="userSpaceOnUse">
      <stop offset="0%" style="stop-color:#3b82f6"/>
      <stop offset="100%" style="stop-color:#2563eb"/>
    </linearGradient>
  </defs>
</svg>