<svg width="28" height="28" viewBox="0 0 28 28" fill="none" xmlns="http://www.w3.org/2000/svg">
<g id="mail 1">
<g id="Vector">
<path d="M14 12.9588L25.1825 5.775C24.7329 5.43779 24.187 5.25376 23.625 5.25H4.375C3.81302 5.25376 3.26708 5.43779 2.8175 5.775L14 12.9588Z" fill="url(#paint0_linear_60_554)"/>
<path d="M14.4725 14.735L14.3238 14.805H14.2538C14.1732 14.841 14.0876 14.8646 14 14.875C13.9274 14.8842 13.8539 14.8842 13.7812 14.875H13.7113L13.5625 14.805L1.8375 7.2275C1.78148 7.43885 1.75209 7.65636 1.75 7.875V20.125C1.75 20.8212 2.02656 21.4889 2.51884 21.9812C3.01113 22.4734 3.67881 22.75 4.375 22.75H23.625C24.3212 22.75 24.9889 22.4734 25.4812 21.9812C25.9734 21.4889 26.25 20.8212 26.25 20.125V7.875C26.2479 7.65636 26.2185 7.43885 26.1625 7.2275L14.4725 14.735Z" fill="url(#paint1_linear_60_554)"/>
</g>
</g>
<defs>
<linearGradient id="paint0_linear_60_554" x1="17.5" y1="3.0625" x2="5.25" y2="29.3125" gradientUnits="userSpaceOnUse">
<stop stop-color="white"/>
<stop offset="1" stop-color="white" stop-opacity="0"/>
</linearGradient>
<linearGradient id="paint1_linear_60_554" x1="17.5" y1="3.0625" x2="5.25" y2="29.3125" gradientUnits="userSpaceOnUse">
<stop stop-color="white"/>
<stop offset="1" stop-color="white" stop-opacity="0"/>
</linearGradient>
</defs>
</svg>
