<?xml version="1.0" encoding="utf-8"?>
<!-- Generator: Adobe Illustrator 27.8.1, SVG Export Plug-In . SVG Version: 6.00 Build 0)  -->
<svg version="1.1" xmlns="http://www.w3.org/2000/svg" xmlns:xlink="http://www.w3.org/1999/xlink" x="0px" y="0px"
	 viewBox="0 0 226 37" style="enable-background:new 0 0 226 37;" xml:space="preserve">
<style type="text/css">
	.st0{opacity:0.6;fill:#FFFFFF;}
	.st1{fill:#FFFFFF;}
	.st2{fill:#FFFFFF;filter:url(#Adobe_OpacityMaskFilter);}
	.st3{mask:url(#mask0_51_287_00000085965234572120624960000006636103631675041953_);}
	.st4{fill:none;}
	.st5{fill:#FFFFFF;filter:url(#Adobe_OpacityMaskFilter_00000176022636789225904110000016362859516448841898_);}
	.st6{mask:url(#mask1_51_287_00000166637976217110214170000007247388126592986294_);}
	.st7{fill:url(#SVGID_1_);}
	.st8{fill:#FFFFFF;filter:url(#Adobe_OpacityMaskFilter_00000015328555249826080660000000037403866189147789_);}
	.st9{mask:url(#mask2_51_287_00000182514154695186692220000013506477880953480377_);}
	.st10{fill:#FFFFFF;filter:url(#Adobe_OpacityMaskFilter_00000167383938377121757280000005759578653771902637_);}
	.st11{mask:url(#mask3_51_287_00000134247550157796587900000001740346028221827222_);}
	.st12{fill:url(#SVGID_00000181782462908932195390000017749971778399129261_);}
	.st13{fill:#FFFFFF;filter:url(#Adobe_OpacityMaskFilter_00000116200590976051962740000017133312952262796192_);}
	.st14{mask:url(#mask4_51_287_00000035509871439853827650000009551409157056545430_);}
	.st15{fill:url(#SVGID_00000178206516205290815860000008650614285963152004_);}
	.st16{fill:#FFFFFF;filter:url(#Adobe_OpacityMaskFilter_00000052782849256932304410000002204402035160759214_);}
	.st17{mask:url(#mask5_51_287_00000148622031774684217510000016581585776677362584_);}
	.st18{fill:url(#SVGID_00000039844496707423494380000011112301713025175192_);}
	.st19{fill:#FFFFFF;filter:url(#Adobe_OpacityMaskFilter_00000039115897219916163710000011160019291643298487_);}
	.st20{mask:url(#mask6_51_287_00000095296875416464824410000008679163649384018878_);}
	.st21{fill:url(#SVGID_00000121960128987609276290000017742011050270382227_);}
</style>
<g id="Слой_2">
	<g>
		<path class="st0" d="M66.8,33.1c-0.2,0-0.4,0-0.5,0c-0.2,0-0.4,0-0.6,0c-0.2,0-0.4,0-0.6-0.1s-0.4-0.1-0.5-0.1v-8.1
			c0.2,0,0.3-0.1,0.5-0.1s0.4,0,0.6-0.1c0.2,0,0.4,0,0.6,0c0.2,0,0.4,0,0.5,0c0.5,0,0.9,0,1.3,0.1c0.4,0.1,0.8,0.2,1.1,0.4
			c0.3,0.2,0.5,0.4,0.7,0.7c0.2,0.3,0.3,0.6,0.3,1c0,0.5-0.1,0.8-0.3,1.1c-0.2,0.3-0.5,0.5-0.9,0.7c0.5,0.1,0.9,0.4,1.2,0.7
			s0.4,0.8,0.4,1.3c0,0.8-0.3,1.5-0.9,1.9S68.1,33.1,66.8,33.1z M65.7,28.2h1.2c0.3,0,0.6,0,0.8-0.1c0.3,0,0.5-0.1,0.7-0.2
			c0.2-0.1,0.3-0.2,0.4-0.4s0.2-0.4,0.2-0.6c0-0.2-0.1-0.4-0.2-0.6c-0.1-0.2-0.3-0.3-0.5-0.4c-0.2-0.1-0.4-0.2-0.7-0.2
			c-0.3,0-0.5-0.1-0.8-0.1s-0.5,0-0.7,0c-0.2,0-0.3,0-0.5,0V28.2z M65.7,29.1V32c0.1,0,0.2,0,0.3,0c0.1,0,0.2,0,0.4,0
			c0.1,0,0.3,0,0.5,0c0.3,0,0.7,0,1-0.1c0.3,0,0.6-0.1,0.8-0.2c0.2-0.1,0.4-0.3,0.6-0.5c0.1-0.2,0.2-0.5,0.2-0.8
			c0-0.3-0.1-0.5-0.2-0.7s-0.3-0.3-0.5-0.5c-0.2-0.1-0.4-0.2-0.7-0.2c-0.3,0-0.6-0.1-0.9-0.1H65.7z"/>
		<path class="st0" d="M77.1,32.8c-0.3,0.1-0.6,0.1-1,0.2c-0.4,0.1-0.9,0.1-1.5,0.1c-0.5,0-0.9-0.1-1.2-0.2
			c-0.3-0.1-0.6-0.3-0.8-0.6c-0.2-0.3-0.3-0.6-0.4-0.9c-0.1-0.3-0.1-0.7-0.1-1.2v-3.5h1.1V30c0,0.8,0.1,1.3,0.4,1.6
			c0.2,0.3,0.6,0.5,1.2,0.5c0.1,0,0.2,0,0.4,0c0.1,0,0.2,0,0.4,0c0.1,0,0.2,0,0.3,0c0.1,0,0.2,0,0.2,0v-5.3h1.1V32.8z"/>
		<path class="st0" d="M80.5,32.2c0.5,0,0.8-0.1,1-0.2c0.2-0.1,0.3-0.3,0.3-0.6c0-0.3-0.1-0.5-0.3-0.6c-0.2-0.2-0.6-0.3-1.1-0.5
			c-0.2-0.1-0.5-0.2-0.7-0.3c-0.2-0.1-0.4-0.2-0.6-0.4c-0.2-0.1-0.3-0.3-0.4-0.5c-0.1-0.2-0.1-0.4-0.1-0.7c0-0.6,0.2-1,0.6-1.3
			c0.4-0.3,1-0.5,1.7-0.5c0.2,0,0.4,0,0.5,0c0.2,0,0.3,0,0.5,0.1s0.3,0.1,0.4,0.1c0.1,0,0.2,0.1,0.3,0.1l-0.2,1
			c-0.1-0.1-0.3-0.1-0.6-0.2c-0.3-0.1-0.6-0.1-0.9-0.1c-0.3,0-0.6,0.1-0.8,0.2s-0.3,0.3-0.3,0.6c0,0.1,0,0.3,0.1,0.4
			c0.1,0.1,0.1,0.2,0.2,0.3c0.1,0.1,0.2,0.2,0.4,0.2c0.2,0.1,0.4,0.1,0.6,0.2c0.3,0.1,0.6,0.2,0.8,0.3c0.2,0.1,0.4,0.2,0.6,0.4
			s0.3,0.3,0.4,0.5s0.1,0.5,0.1,0.8c0,0.6-0.2,1-0.6,1.3c-0.4,0.3-1,0.4-1.8,0.4c-0.6,0-1,0-1.3-0.1s-0.5-0.2-0.6-0.2l0.2-1
			c0.1,0,0.3,0.1,0.6,0.2C79.7,32.1,80,32.2,80.5,32.2z"/>
		<path class="st0" d="M84.9,25.6c-0.2,0-0.4-0.1-0.5-0.2c-0.1-0.1-0.2-0.3-0.2-0.5c0-0.2,0.1-0.4,0.2-0.5c0.1-0.1,0.3-0.2,0.5-0.2
			c0.2,0,0.4,0.1,0.5,0.2c0.1,0.1,0.2,0.3,0.2,0.5c0,0.2-0.1,0.4-0.2,0.5C85.3,25.5,85.1,25.6,84.9,25.6z M85.5,33h-1.1v-6.2h1.1V33
			z"/>
		<path class="st0" d="M87.4,26.9c0.3-0.1,0.6-0.1,1-0.2c0.4-0.1,0.9-0.1,1.5-0.1c0.5,0,0.9,0.1,1.2,0.2c0.3,0.1,0.6,0.3,0.8,0.6
			c0.2,0.3,0.3,0.6,0.4,0.9s0.1,0.7,0.1,1.2V33h-1.1v-3.3c0-0.4,0-0.7-0.1-1c-0.1-0.3-0.1-0.5-0.3-0.7c-0.1-0.2-0.3-0.3-0.5-0.4
			c-0.2-0.1-0.4-0.1-0.7-0.1c-0.1,0-0.2,0-0.4,0c-0.1,0-0.3,0-0.4,0c-0.1,0-0.2,0-0.3,0c-0.1,0-0.2,0-0.2,0V33h-1.1V26.9z"/>
		<path class="st0" d="M94,29.9c0-0.6,0.1-1,0.2-1.4c0.2-0.4,0.4-0.8,0.6-1c0.3-0.3,0.6-0.5,0.9-0.6s0.7-0.2,1.1-0.2
			c0.8,0,1.5,0.3,1.9,0.8c0.4,0.5,0.7,1.3,0.7,2.4c0,0,0,0.1,0,0.2c0,0.1,0,0.1,0,0.2h-4.3c0,0.6,0.2,1.1,0.6,1.5
			c0.3,0.3,0.8,0.5,1.5,0.5c0.4,0,0.7,0,1-0.1c0.3-0.1,0.5-0.1,0.6-0.2l0.2,0.9c-0.1,0.1-0.4,0.1-0.7,0.2c-0.3,0.1-0.7,0.1-1.2,0.1
			c-0.5,0-1-0.1-1.4-0.2s-0.7-0.4-1-0.7c-0.3-0.3-0.4-0.6-0.6-1S94,30.3,94,29.9z M98.3,29.3c0-0.5-0.1-0.9-0.4-1.2
			c-0.3-0.3-0.6-0.5-1.1-0.5c-0.3,0-0.5,0.1-0.7,0.2c-0.2,0.1-0.4,0.2-0.5,0.4c-0.1,0.2-0.2,0.3-0.3,0.6c-0.1,0.2-0.1,0.4-0.2,0.6
			H98.3z"/>
		<path class="st0" d="M102.5,32.2c0.5,0,0.8-0.1,1-0.2c0.2-0.1,0.3-0.3,0.3-0.6c0-0.3-0.1-0.5-0.3-0.6c-0.2-0.2-0.6-0.3-1.1-0.5
			c-0.2-0.1-0.5-0.2-0.7-0.3c-0.2-0.1-0.4-0.2-0.6-0.4c-0.2-0.1-0.3-0.3-0.4-0.5c-0.1-0.2-0.1-0.4-0.1-0.7c0-0.6,0.2-1,0.6-1.3
			c0.4-0.3,1-0.5,1.7-0.5c0.2,0,0.4,0,0.5,0c0.2,0,0.3,0,0.5,0.1s0.3,0.1,0.4,0.1c0.1,0,0.2,0.1,0.3,0.1l-0.2,1
			c-0.1-0.1-0.3-0.1-0.6-0.2c-0.3-0.1-0.6-0.1-0.9-0.1c-0.3,0-0.6,0.1-0.8,0.2s-0.3,0.3-0.3,0.6c0,0.1,0,0.3,0.1,0.4
			c0.1,0.1,0.1,0.2,0.2,0.3c0.1,0.1,0.2,0.2,0.4,0.2c0.2,0.1,0.4,0.1,0.6,0.2c0.3,0.1,0.6,0.2,0.8,0.3c0.2,0.1,0.4,0.2,0.6,0.4
			s0.3,0.3,0.4,0.5s0.1,0.5,0.1,0.8c0,0.6-0.2,1-0.6,1.3c-0.4,0.3-1,0.4-1.8,0.4c-0.6,0-1,0-1.3-0.1s-0.5-0.2-0.6-0.2l0.2-1
			c0.1,0,0.3,0.1,0.6,0.2C101.6,32.1,102,32.2,102.5,32.2z"/>
		<path class="st0" d="M107.8,32.2c0.5,0,0.8-0.1,1-0.2c0.2-0.1,0.3-0.3,0.3-0.6c0-0.3-0.1-0.5-0.3-0.6c-0.2-0.2-0.6-0.3-1.1-0.5
			c-0.2-0.1-0.5-0.2-0.7-0.3c-0.2-0.1-0.4-0.2-0.6-0.4c-0.2-0.1-0.3-0.3-0.4-0.5c-0.1-0.2-0.1-0.4-0.1-0.7c0-0.6,0.2-1,0.6-1.3
			c0.4-0.3,1-0.5,1.7-0.5c0.2,0,0.4,0,0.5,0c0.2,0,0.3,0,0.5,0.1s0.3,0.1,0.4,0.1c0.1,0,0.2,0.1,0.3,0.1l-0.2,1
			c-0.1-0.1-0.3-0.1-0.6-0.2c-0.3-0.1-0.6-0.1-0.9-0.1c-0.3,0-0.6,0.1-0.8,0.2s-0.3,0.3-0.3,0.6c0,0.1,0,0.3,0.1,0.4
			c0.1,0.1,0.1,0.2,0.2,0.3c0.1,0.1,0.2,0.2,0.4,0.2c0.2,0.1,0.4,0.1,0.6,0.2c0.3,0.1,0.6,0.2,0.8,0.3c0.2,0.1,0.4,0.2,0.6,0.4
			s0.3,0.3,0.4,0.5s0.1,0.5,0.1,0.8c0,0.6-0.2,1-0.6,1.3c-0.4,0.3-1,0.4-1.8,0.4c-0.6,0-1,0-1.3-0.1s-0.5-0.2-0.6-0.2l0.2-1
			c0.1,0,0.3,0.1,0.6,0.2C107,32.1,107.4,32.2,107.8,32.2z"/>
		<path class="st0" d="M116.5,32.2c1.2,0,1.8-0.4,1.8-1.2c0-0.3-0.1-0.5-0.2-0.7s-0.3-0.3-0.4-0.5c-0.2-0.1-0.4-0.2-0.6-0.3
			c-0.2-0.1-0.5-0.2-0.8-0.3c-0.3-0.1-0.6-0.2-0.9-0.4c-0.3-0.1-0.5-0.3-0.7-0.5c-0.2-0.2-0.4-0.4-0.5-0.6c-0.1-0.2-0.2-0.5-0.2-0.9
			c0-0.7,0.2-1.3,0.7-1.7s1.2-0.6,2.1-0.6c0.5,0,1,0.1,1.4,0.2c0.4,0.1,0.7,0.2,0.9,0.4l-0.4,0.9c-0.2-0.1-0.4-0.2-0.8-0.3
			c-0.3-0.1-0.7-0.1-1.2-0.1c-0.2,0-0.4,0-0.6,0.1c-0.2,0-0.4,0.1-0.5,0.2c-0.1,0.1-0.3,0.2-0.3,0.4c-0.1,0.1-0.1,0.3-0.1,0.5
			c0,0.2,0,0.4,0.1,0.6c0.1,0.2,0.2,0.3,0.4,0.4c0.2,0.1,0.3,0.2,0.6,0.3c0.2,0.1,0.4,0.2,0.7,0.3c0.4,0.1,0.7,0.3,1,0.4
			s0.6,0.3,0.8,0.5c0.2,0.2,0.4,0.4,0.5,0.7c0.1,0.3,0.2,0.6,0.2,1c0,0.7-0.3,1.3-0.8,1.7c-0.5,0.4-1.3,0.6-2.2,0.6
			c-0.3,0-0.6,0-0.9-0.1s-0.5-0.1-0.7-0.2c-0.2-0.1-0.4-0.1-0.6-0.2c-0.2-0.1-0.3-0.1-0.4-0.2l0.3-1c0.2,0.1,0.5,0.2,0.8,0.3
			S116,32.2,116.5,32.2z"/>
		<path class="st0" d="M126.4,29.9c0,0.5-0.1,0.9-0.2,1.3s-0.3,0.7-0.6,1c-0.3,0.3-0.6,0.5-0.9,0.7c-0.4,0.2-0.8,0.2-1.2,0.2
			c-0.4,0-0.8-0.1-1.2-0.2c-0.4-0.2-0.7-0.4-0.9-0.7c-0.3-0.3-0.5-0.6-0.6-1s-0.2-0.8-0.2-1.3c0-0.5,0.1-0.9,0.2-1.3
			c0.1-0.4,0.3-0.8,0.6-1c0.3-0.3,0.6-0.5,0.9-0.7c0.4-0.2,0.8-0.2,1.2-0.2c0.4,0,0.8,0.1,1.2,0.2c0.4,0.2,0.7,0.4,0.9,0.7
			c0.3,0.3,0.5,0.6,0.6,1C126.3,28.9,126.4,29.4,126.4,29.9z M125.2,29.9c0-0.7-0.2-1.3-0.5-1.7c-0.3-0.4-0.7-0.6-1.3-0.6
			s-1,0.2-1.3,0.6s-0.5,1-0.5,1.7c0,0.7,0.2,1.3,0.5,1.7s0.7,0.6,1.3,0.6s1-0.2,1.3-0.6C125.1,31.1,125.2,30.6,125.2,29.9z"/>
		<path class="st0" d="M129.8,33.1c-0.7,0-1.2-0.2-1.5-0.4c-0.3-0.3-0.4-0.7-0.4-1.3v-7.5l1.1-0.2v7.5c0,0.2,0,0.3,0,0.5
			c0,0.1,0.1,0.2,0.2,0.3c0.1,0.1,0.2,0.1,0.3,0.2c0.1,0,0.3,0.1,0.4,0.1L129.8,33.1z"/>
		<path class="st0" d="M136.2,32.8c-0.3,0.1-0.6,0.1-1,0.2c-0.4,0.1-0.9,0.1-1.5,0.1c-0.5,0-0.9-0.1-1.2-0.2
			c-0.3-0.1-0.6-0.3-0.8-0.6c-0.2-0.3-0.3-0.6-0.4-0.9c-0.1-0.3-0.1-0.7-0.1-1.2v-3.5h1.1V30c0,0.8,0.1,1.3,0.4,1.6
			c0.2,0.3,0.6,0.5,1.2,0.5c0.1,0,0.2,0,0.4,0c0.1,0,0.2,0,0.4,0c0.1,0,0.2,0,0.3,0c0.1,0,0.2,0,0.2,0v-5.3h1.1V32.8z"/>
		<path class="st0" d="M139.2,26.7h2.4v0.9h-2.4v2.9c0,0.3,0,0.6,0.1,0.8c0,0.2,0.1,0.4,0.2,0.5c0.1,0.1,0.2,0.2,0.4,0.2
			c0.1,0,0.3,0.1,0.5,0.1c0.3,0,0.6,0,0.8-0.1c0.2-0.1,0.3-0.1,0.4-0.2l0.2,0.9c-0.1,0.1-0.3,0.1-0.6,0.2c-0.3,0.1-0.6,0.1-1,0.1
			c-0.4,0-0.8-0.1-1.1-0.2c-0.3-0.1-0.5-0.3-0.7-0.5c-0.2-0.2-0.3-0.5-0.4-0.8c-0.1-0.3-0.1-0.7-0.1-1.1V25l1.1-0.2V26.7z"/>
		<path class="st0" d="M143.5,25.6c-0.2,0-0.4-0.1-0.5-0.2c-0.1-0.1-0.2-0.3-0.2-0.5c0-0.2,0.1-0.4,0.2-0.5c0.1-0.1,0.3-0.2,0.5-0.2
			c0.2,0,0.4,0.1,0.5,0.2c0.1,0.1,0.2,0.3,0.2,0.5c0,0.2-0.1,0.4-0.2,0.5C143.9,25.5,143.7,25.6,143.5,25.6z M144.1,33H143v-6.2h1.1
			V33z"/>
		<path class="st0" d="M151.5,29.9c0,0.5-0.1,0.9-0.2,1.3c-0.1,0.4-0.3,0.7-0.6,1c-0.3,0.3-0.6,0.5-0.9,0.7
			c-0.4,0.2-0.8,0.2-1.2,0.2c-0.4,0-0.8-0.1-1.2-0.2c-0.4-0.2-0.7-0.4-0.9-0.7c-0.3-0.3-0.5-0.6-0.6-1s-0.2-0.8-0.2-1.3
			c0-0.5,0.1-0.9,0.2-1.3c0.1-0.4,0.3-0.8,0.6-1c0.3-0.3,0.6-0.5,0.9-0.7c0.4-0.2,0.8-0.2,1.2-0.2c0.4,0,0.8,0.1,1.2,0.2
			c0.4,0.2,0.7,0.4,0.9,0.7c0.3,0.3,0.5,0.6,0.6,1C151.4,28.9,151.5,29.4,151.5,29.9z M150.3,29.9c0-0.7-0.2-1.3-0.5-1.7
			c-0.3-0.4-0.7-0.6-1.3-0.6s-1,0.2-1.3,0.6s-0.5,1-0.5,1.7c0,0.7,0.2,1.3,0.5,1.7s0.7,0.6,1.3,0.6s1-0.2,1.3-0.6
			C150.2,31.1,150.3,30.6,150.3,29.9z"/>
		<path class="st0" d="M153.1,26.9c0.3-0.1,0.6-0.1,1-0.2c0.4-0.1,0.9-0.1,1.5-0.1c0.5,0,0.9,0.1,1.2,0.2c0.3,0.1,0.6,0.3,0.8,0.6
			c0.2,0.3,0.3,0.6,0.4,0.9s0.1,0.7,0.1,1.2V33H157v-3.3c0-0.4,0-0.7-0.1-1c-0.1-0.3-0.1-0.5-0.3-0.7s-0.3-0.3-0.5-0.4
			c-0.2-0.1-0.4-0.1-0.7-0.1c-0.1,0-0.2,0-0.4,0s-0.2,0-0.4,0c-0.1,0-0.2,0-0.3,0c-0.1,0-0.2,0-0.2,0V33h-1.1V26.9z"/>
		<path class="st0" d="M161.4,32.2c0.5,0,0.8-0.1,1-0.2s0.3-0.3,0.3-0.6c0-0.3-0.1-0.5-0.3-0.6c-0.2-0.2-0.6-0.3-1.1-0.5
			c-0.2-0.1-0.5-0.2-0.7-0.3s-0.4-0.2-0.6-0.4c-0.2-0.1-0.3-0.3-0.4-0.5c-0.1-0.2-0.1-0.4-0.1-0.7c0-0.6,0.2-1,0.6-1.3
			c0.4-0.3,1-0.5,1.7-0.5c0.2,0,0.4,0,0.5,0c0.2,0,0.3,0,0.5,0.1s0.3,0.1,0.4,0.1c0.1,0,0.2,0.1,0.3,0.1l-0.2,1
			c-0.1-0.1-0.3-0.1-0.6-0.2c-0.3-0.1-0.6-0.1-0.9-0.1c-0.3,0-0.6,0.1-0.8,0.2c-0.2,0.1-0.3,0.3-0.3,0.6c0,0.1,0,0.3,0.1,0.4
			c0.1,0.1,0.1,0.2,0.2,0.3c0.1,0.1,0.2,0.2,0.4,0.2c0.2,0.1,0.4,0.1,0.6,0.2c0.3,0.1,0.6,0.2,0.8,0.3c0.2,0.1,0.4,0.2,0.6,0.4
			s0.3,0.3,0.4,0.5s0.1,0.5,0.1,0.8c0,0.6-0.2,1-0.6,1.3c-0.4,0.3-1,0.4-1.8,0.4c-0.6,0-1,0-1.3-0.1c-0.3-0.1-0.5-0.2-0.6-0.2l0.2-1
			c0.1,0,0.3,0.1,0.6,0.2C160.6,32.1,160.9,32.2,161.4,32.2z"/>
	</g>
</g>
<g id="Слой_1">
	<path class="st1" d="M67.2,3.9c0.2,0.4,0.5,0.9,0.8,1.5c0.3,0.6,0.6,1.2,0.9,1.9c0.3,0.6,0.6,1.3,0.9,2c0.3,0.7,0.6,1.3,0.8,1.8
		c0.2-0.6,0.5-1.2,0.8-1.8c0.3-0.7,0.6-1.3,0.9-2c0.3-0.7,0.6-1.3,0.9-1.9c0.3-0.6,0.5-1.1,0.8-1.5h1.8c0.1,0.8,0.2,1.7,0.3,2.6
		c0.1,0.9,0.2,1.8,0.2,2.8c0.1,0.9,0.1,1.9,0.2,2.9c0.1,1,0.1,1.9,0.2,2.8h-2c0-1.3-0.1-2.6-0.2-4c-0.1-1.4-0.1-2.7-0.3-4
		c-0.1,0.2-0.3,0.5-0.4,0.9c-0.2,0.3-0.3,0.7-0.5,1.1c-0.2,0.4-0.4,0.8-0.6,1.2c-0.2,0.4-0.4,0.8-0.5,1.2c-0.2,0.4-0.3,0.8-0.5,1.1
		c-0.1,0.3-0.3,0.6-0.4,0.9h-1.5c-0.1-0.2-0.2-0.5-0.4-0.9c-0.1-0.4-0.3-0.7-0.5-1.1c-0.2-0.4-0.4-0.8-0.5-1.2
		C68.2,9.8,68,9.4,67.8,9c-0.2-0.4-0.4-0.8-0.5-1.1C67.1,7.6,67,7.3,66.9,7c-0.1,1.3-0.2,2.6-0.3,4c-0.1,1.4-0.1,2.7-0.1,4h-2
		c0-0.9,0.1-1.9,0.1-2.8c0.1-1,0.1-2,0.2-2.9c0.1-1,0.2-1.9,0.2-2.8c0.1-0.9,0.2-1.7,0.3-2.5H67.2z M86.9,15
		c-0.1-0.4-0.3-0.9-0.5-1.3c-0.2-0.4-0.3-0.9-0.5-1.3h-4.7c-0.1,0.4-0.3,0.9-0.5,1.3c-0.1,0.4-0.3,0.9-0.4,1.3h-2.1
		c0.4-1.2,0.8-2.3,1.2-3.3c0.4-1,0.7-2,1.1-2.8c0.4-0.9,0.7-1.7,1.1-2.6c0.4-0.8,0.7-1.6,1.1-2.4h1.9c0.4,0.8,0.7,1.6,1.1,2.4
		c0.4,0.8,0.7,1.7,1.1,2.6c0.4,0.9,0.7,1.8,1.1,2.8c0.4,1,0.8,2.1,1.2,3.3H86.9z M83.7,6.1c-0.2,0.6-0.5,1.3-0.8,2.1
		c-0.3,0.8-0.6,1.7-1,2.6h3.6c-0.3-0.9-0.7-1.8-1-2.7C84.2,7.3,83.9,6.6,83.7,6.1z M97.8,15c-0.3-0.4-0.6-0.9-1-1.3
		c-0.4-0.5-0.7-0.9-1.2-1.4c-0.4-0.4-0.8-0.9-1.2-1.2c-0.4-0.4-0.8-0.7-1.3-1v5h-2V3.9h2v4.6c0.4-0.4,0.7-0.7,1.1-1.1
		C94.6,7,95,6.6,95.4,6.2c0.4-0.4,0.7-0.8,1.1-1.2c0.3-0.4,0.7-0.7,0.9-1h2.4c-0.4,0.4-0.7,0.8-1.1,1.3c-0.4,0.4-0.8,0.9-1.2,1.3
		c-0.4,0.4-0.8,0.9-1.3,1.3c-0.4,0.4-0.8,0.9-1.2,1.2c0.4,0.3,0.9,0.7,1.4,1.2c0.5,0.4,0.9,0.9,1.4,1.5c0.4,0.5,0.9,1.1,1.3,1.6
		c0.4,0.6,0.8,1.1,1.1,1.7H97.8z M102.2,15V3.9h7.1v1.7h-5.1v2.7h4.5V10h-4.5v3.2h5.5V15H102.2z M124.3,3.9v1.7h-3.4V15h-2V5.7h-3.4
		V3.9H124.3z M129.6,3.8c1.6,0,2.8,0.3,3.7,0.9c0.9,0.6,1.3,1.5,1.3,2.7c0,1.5-0.7,2.5-2.2,3.1c0.2,0.2,0.4,0.5,0.7,0.9
		s0.5,0.7,0.8,1.2c0.3,0.4,0.5,0.8,0.8,1.3c0.2,0.4,0.5,0.8,0.7,1.3h-2.3c-0.2-0.4-0.4-0.8-0.7-1.2c-0.2-0.4-0.5-0.8-0.7-1.1
		c-0.2-0.4-0.5-0.7-0.7-1c-0.2-0.3-0.5-0.6-0.7-0.9c-0.1,0-0.3,0-0.4,0s-0.2,0-0.3,0h-1V15h-2V4.1c0.5-0.1,1-0.2,1.6-0.2
		C128.6,3.8,129.1,3.8,129.6,3.8z M129.7,5.5c-0.4,0-0.8,0-1.2,0v3.6h0.9c0.5,0,0.9,0,1.3-0.1c0.4-0.1,0.7-0.1,0.9-0.3
		c0.3-0.1,0.4-0.3,0.6-0.6c0.1-0.2,0.2-0.5,0.2-0.9c0-0.3-0.1-0.6-0.2-0.9c-0.1-0.2-0.3-0.4-0.6-0.6c-0.2-0.1-0.5-0.2-0.8-0.3
		C130.5,5.6,130.1,5.5,129.7,5.5z M145.1,15c-0.1-0.4-0.3-0.9-0.5-1.3c-0.2-0.4-0.3-0.9-0.5-1.3h-4.7c-0.1,0.4-0.3,0.9-0.5,1.3
		c-0.2,0.4-0.3,0.9-0.4,1.3h-2.1c0.4-1.2,0.8-2.3,1.2-3.3c0.4-1,0.7-2,1.1-2.8c0.4-0.9,0.7-1.7,1.1-2.6c0.4-0.8,0.7-1.6,1.1-2.4h1.9
		c0.4,0.8,0.7,1.6,1.1,2.4c0.4,0.8,0.7,1.7,1.1,2.6c0.4,0.9,0.7,1.8,1.1,2.8c0.4,1,0.8,2.1,1.2,3.3H145.1z M141.9,6.1
		c-0.2,0.6-0.5,1.3-0.8,2.1c-0.3,0.8-0.6,1.7-1,2.6h3.6c-0.3-0.9-0.7-1.8-1-2.7C142.4,7.3,142.1,6.6,141.9,6.1z M151.4,13.3
		c0.1,0,0.3,0,0.5,0c0.2,0,0.5,0,0.8,0c1.4,0,2.4-0.3,3-1c0.7-0.7,1-1.7,1-2.9c0-1.3-0.3-2.2-1-2.9s-1.7-1-3-1c-0.6,0-1,0-1.3,0
		V13.3z M158.8,9.4c0,1-0.1,1.8-0.4,2.5c-0.3,0.7-0.7,1.3-1.3,1.8c-0.5,0.5-1.2,0.8-2,1.1c-0.8,0.2-1.6,0.3-2.6,0.3
		c-0.4,0-1,0-1.5-0.1c-0.6,0-1.1-0.1-1.6-0.2V4.1c0.5-0.1,1.1-0.2,1.6-0.2c0.6,0,1.1,0,1.5,0c0.9,0,1.8,0.1,2.5,0.3
		c0.8,0.2,1.4,0.6,2,1c0.6,0.5,1,1,1.3,1.8C158.6,7.6,158.8,8.5,158.8,9.4z M161.6,15V3.9h7.1v1.7h-5.1v2.7h4.5V10h-4.5v3.2h5.5V15
		H161.6z M174.3,13.5c0.7,0,1.3-0.1,1.6-0.4c0.3-0.2,0.5-0.6,0.5-1c0-0.3-0.1-0.5-0.2-0.7c-0.1-0.2-0.3-0.4-0.5-0.5
		c-0.2-0.2-0.5-0.3-0.8-0.4c-0.3-0.1-0.6-0.3-1-0.4c-0.4-0.1-0.8-0.3-1.1-0.4c-0.4-0.2-0.7-0.4-0.9-0.6c-0.3-0.2-0.5-0.5-0.7-0.9
		c-0.2-0.3-0.2-0.8-0.2-1.2c0-1,0.3-1.8,1-2.4c0.7-0.6,1.6-0.9,2.8-0.9c0.7,0,1.3,0.1,1.8,0.2c0.5,0.1,1,0.3,1.3,0.5L177.4,6
		c-0.4-0.2-0.8-0.4-1.2-0.5c-0.4-0.1-0.9-0.2-1.3-0.2c-0.5,0-1,0.1-1.3,0.3c-0.3,0.2-0.4,0.5-0.4,0.9c0,0.2,0,0.5,0.1,0.6
		c0.1,0.2,0.3,0.3,0.4,0.5c0.2,0.1,0.4,0.3,0.7,0.4c0.3,0.1,0.5,0.2,0.8,0.3c0.5,0.2,1,0.4,1.4,0.6c0.4,0.2,0.8,0.4,1,0.7
		c0.3,0.3,0.5,0.6,0.7,1c0.1,0.4,0.2,0.8,0.2,1.3c0,1-0.4,1.8-1.1,2.3c-0.7,0.5-1.7,0.8-3.1,0.8c-0.5,0-0.9,0-1.3-0.1
		c-0.4-0.1-0.7-0.1-1-0.2c-0.3-0.1-0.5-0.2-0.8-0.3c-0.2-0.1-0.4-0.2-0.5-0.3l0.6-1.6c0.3,0.2,0.7,0.3,1.2,0.5
		C173,13.4,173.6,13.5,174.3,13.5z"/>
	<defs>
		<filter id="Adobe_OpacityMaskFilter" filterUnits="userSpaceOnUse" x="17.9" y="11.4" width="21.1" height="24.6">
			<feColorMatrix  type="matrix" values="1 0 0 0 0  0 1 0 0 0  0 0 1 0 0  0 0 0 1 0"/>
		</filter>
	</defs>
	
		<mask maskUnits="userSpaceOnUse" x="17.9" y="11.4" width="21.1" height="24.6" id="mask0_51_287_00000085965234572120624960000006636103631675041953_">
		<path class="st2" d="M22.6,35.9c-1.6,0-3.3-0.6-4.5-1.9l15.4-22.5l5.5,5.5l-11,16.1C26.6,34.9,24.6,35.9,22.6,35.9z"/>
	</mask>
	<g class="st3">
		<rect x="17.9" y="11.4" class="st4" width="21.1" height="24.6"/>
	</g>
	<defs>
		
			<filter id="Adobe_OpacityMaskFilter_00000034077912989035614010000012593784390485210754_" filterUnits="userSpaceOnUse" x="18" y="23" width="29.9" height="14">
			<feColorMatrix  type="matrix" values="1 0 0 0 0  0 1 0 0 0  0 0 1 0 0  0 0 0 1 0"/>
		</filter>
	</defs>
	
		<mask maskUnits="userSpaceOnUse" x="18" y="23" width="29.9" height="14" id="mask1_51_287_00000166637976217110214170000007247388126592986294_">
		<path style="fill:#FFFFFF;filter:url(#Adobe_OpacityMaskFilter_00000034077912989035614010000012593784390485210754_);" d="
			M47.9,26l-17.6,9.7c-4,2.2-9,1.5-12.2-1.7l17.6-9.7C39.6,22.1,44.6,22.8,47.9,26z"/>
	</mask>
	<g class="st6">
		
			<linearGradient id="SVGID_1_" gradientUnits="userSpaceOnUse" x1="32.6167" y1="7.7746" x2="21.657" y2="0.5106" gradientTransform="matrix(1 0 0 -1 0 38)">
			<stop  offset="0" style="stop-color:#01F8F5"/>
			<stop  offset="0.9977" style="stop-color:#006EF0"/>
			<stop  offset="1" style="stop-color:#006EF0"/>
		</linearGradient>
		<path class="st7" d="M47.9,26l-17.6,9.7c-4,2.2-9,1.5-12.2-1.7l17.6-9.7C39.6,22.1,44.6,22.8,47.9,26z"/>
	</g>
	<defs>
		
			<filter id="Adobe_OpacityMaskFilter_00000045607349439184924490000002796534095646092473_" filterUnits="userSpaceOnUse" x="8.8" y="6" width="21.2" height="21">
			<feColorMatrix  type="matrix" values="1 0 0 0 0  0 1 0 0 0  0 0 1 0 0  0 0 0 1 0"/>
		</filter>
	</defs>
	
		<mask maskUnits="userSpaceOnUse" x="8.8" y="6" width="21.2" height="21" id="mask2_51_287_00000182514154695186692220000013506477880953480377_">
		<path style="fill:#FFFFFF;filter:url(#Adobe_OpacityMaskFilter_00000045607349439184924490000002796534095646092473_);" d="
			M13.6,26.9c-1.6,0-3.3-0.6-4.5-1.9L20,8.9c1.3-1.8,3.3-2.8,5.3-2.8c1.6,0,3.3,0.6,4.5,1.9l-11,16.1C17.6,25.9,15.6,26.9,13.6,26.9
			z"/>
	</mask>
	<g class="st9">
		<rect x="8.8" y="6" class="st4" width="21.2" height="21"/>
	</g>
	<defs>
		
			<filter id="Adobe_OpacityMaskFilter_00000013184088724029269350000009118197975480610227_" filterUnits="userSpaceOnUse" x="0" y="5" width="29.9" height="14">
			<feColorMatrix  type="matrix" values="1 0 0 0 0  0 1 0 0 0  0 0 1 0 0  0 0 0 1 0"/>
		</filter>
	</defs>
	
		<mask maskUnits="userSpaceOnUse" x="0" y="5" width="29.9" height="14" id="mask3_51_287_00000134247550157796587900000001740346028221827222_">
		<path style="fill:#FFFFFF;filter:url(#Adobe_OpacityMaskFilter_00000013184088724029269350000009118197975480610227_);" d="
			M29.9,8l-17.6,9.7c-4,2.2-9,1.5-12.2-1.7l17.6-9.7C21.6,4,26.6,4.8,29.9,8z"/>
	</mask>
	<g class="st11">
		
			<linearGradient id="SVGID_00000025422586703041180830000011781657571889085100_" gradientUnits="userSpaceOnUse" x1="17.5174" y1="23.9749" x2="5.1578" y2="33.7585" gradientTransform="matrix(1 0 0 -1 0 38)">
			<stop  offset="0.4075" style="stop-color:#18C8FF"/>
			<stop  offset="1" style="stop-color:#933FFE"/>
		</linearGradient>
		<path style="fill:url(#SVGID_00000025422586703041180830000011781657571889085100_);" d="M29.9,8l-17.6,9.7c-4,2.2-9,1.5-12.2-1.7
			l17.6-9.7C21.6,4,26.6,4.8,29.9,8z"/>
	</g>
	<defs>
		
			<filter id="Adobe_OpacityMaskFilter_00000009558908315990930670000017030288426454351789_" filterUnits="userSpaceOnUse" x="27.1" y="18" width="29.9" height="14">
			<feColorMatrix  type="matrix" values="1 0 0 0 0  0 1 0 0 0  0 0 1 0 0  0 0 0 1 0"/>
		</filter>
	</defs>
	
		<mask maskUnits="userSpaceOnUse" x="27.1" y="18" width="29.9" height="14" id="mask4_51_287_00000035509871439853827650000009551409157056545430_">
		<path style="fill:#FFFFFF;filter:url(#Adobe_OpacityMaskFilter_00000009558908315990930670000017030288426454351789_);" d="
			M56.9,21l-17.6,9.7c-4,2.2-9,1.5-12.2-1.7l17.6-9.7C48.7,17.1,53.7,17.8,56.9,21z"/>
	</mask>
	<g class="st14">
		
			<linearGradient id="SVGID_00000021107980770995366820000008451897344309125538_" gradientUnits="userSpaceOnUse" x1="48.1691" y1="8.8396" x2="29.853" y2="21.0793" gradientTransform="matrix(1 0 0 -1 0 38)">
			<stop  offset="0" style="stop-color:#18C8FF"/>
			<stop  offset="1" style="stop-color:#933FFE"/>
		</linearGradient>
		<path style="fill:url(#SVGID_00000021107980770995366820000008451897344309125538_);" d="M56.9,21l-17.6,9.7
			c-4,2.2-9,1.5-12.2-1.7l17.6-9.7C48.7,17.1,53.7,17.8,56.9,21z"/>
	</g>
	<defs>
		
			<filter id="Adobe_OpacityMaskFilter_00000025440831467045669190000011188796417293239986_" filterUnits="userSpaceOnUse" x="9.2" y="11.4" width="29.9" height="16.5">
			<feColorMatrix  type="matrix" values="1 0 0 0 0  0 1 0 0 0  0 0 1 0 0  0 0 0 1 0"/>
		</filter>
	</defs>
	
		<mask maskUnits="userSpaceOnUse" x="9.2" y="11.4" width="29.9" height="16.5" id="mask5_51_287_00000148622031774684217510000016581585776677362584_">
		<path style="fill:#FFFFFF;filter:url(#Adobe_OpacityMaskFilter_00000025440831467045669190000011188796417293239986_);" d="
			M33.6,11.4l5.5,5.5l-17.6,9.7c-4,2.2-9,1.5-12.2-1.7L33.6,11.4z"/>
	</mask>
	<g class="st17">
		
			<linearGradient id="SVGID_00000139260873448302362990000000906704216424411280_" gradientUnits="userSpaceOnUse" x1="38.2904" y1="15.8211" x2="14.6076" y2="20.281" gradientTransform="matrix(1 0 0 -1 0 38)">
			<stop  offset="0" style="stop-color:#18C8FF"/>
			<stop  offset="1" style="stop-color:#933FFE"/>
		</linearGradient>
		<path style="fill:url(#SVGID_00000139260873448302362990000000906704216424411280_);" d="M33.6,11.4l5.5,5.5l-17.6,9.7
			c-4,2.2-9,1.5-12.2-1.7L33.6,11.4z"/>
	</g>
	<defs>
		
			<filter id="Adobe_OpacityMaskFilter_00000085253122567494081180000009172939015153669795_" filterUnits="userSpaceOnUse" x="9" y="0" width="29.9" height="14">
			<feColorMatrix  type="matrix" values="1 0 0 0 0  0 1 0 0 0  0 0 1 0 0  0 0 0 1 0"/>
		</filter>
	</defs>
	
		<mask maskUnits="userSpaceOnUse" x="9" y="0" width="29.9" height="14" id="mask6_51_287_00000095296875416464824410000008679163649384018878_">
		<path style="fill:#FFFFFF;filter:url(#Adobe_OpacityMaskFilter_00000085253122567494081180000009172939015153669795_);" d="
			M38.9,3l-17.6,9.7c-4,2.2-9,1.5-12.2-1.7l17.6-9.7C30.6-0.9,35.6-0.2,38.9,3z"/>
	</mask>
	<g class="st20">
		
			<linearGradient id="SVGID_00000158029083964910847270000002227649727024014217_" gradientUnits="userSpaceOnUse" x1="31.0043" y1="25.5726" x2="14.8532" y2="38.0107" gradientTransform="matrix(1 0 0 -1 0 38)">
			<stop  offset="0" style="stop-color:#18C8FF"/>
			<stop  offset="1" style="stop-color:#933FFE"/>
		</linearGradient>
		<path style="fill:url(#SVGID_00000158029083964910847270000002227649727024014217_);" d="M38.9,3l-17.6,9.7c-4,2.2-9,1.5-12.2-1.7
			l17.6-9.7C30.6-0.9,35.6-0.2,38.9,3z"/>
	</g>
</g>
</svg>
