<?xml version="1.0" encoding="UTF-8"?>
<svg width="1600" height="900" viewBox="0 0 1600 900" fill="none" xmlns="http://www.w3.org/2000/svg">
  <defs>
    <linearGradient id="bg" x1="0" y1="0" x2="1600" y2="900" gradientUnits="userSpaceOnUse">
      <stop offset="0%" stop-color="#101522" />
      <stop offset="100%" stop-color="#2C4268" />
    </linearGradient>
  </defs>
  <rect width="1600" height="900" fill="url(#bg)" />
  <circle cx="1290" cy="150" r="310" fill="rgba(125, 211, 252, 0.18)" />
  <circle cx="130" cy="770" r="220" fill="rgba(252, 165, 165, 0.12)" />
  <path d="M -120 150 L 240 30 L 1180 900 L 820 900 Z" fill="rgba(255,255,255,0.04)" />
  <g stroke="rgba(125, 211, 252, 0.1)" stroke-width="1">
    <line x1="0" y1="0" x2="0" y2="900" /><line x1="88" y1="0" x2="88" y2="900" /><line x1="176" y1="0" x2="176" y2="900" /><line x1="264" y1="0" x2="264" y2="900" /><line x1="352" y1="0" x2="352" y2="900" /><line x1="440" y1="0" x2="440" y2="900" /><line x1="528" y1="0" x2="528" y2="900" /><line x1="616" y1="0" x2="616" y2="900" /><line x1="704" y1="0" x2="704" y2="900" /><line x1="792" y1="0" x2="792" y2="900" /><line x1="880" y1="0" x2="880" y2="900" /><line x1="968" y1="0" x2="968" y2="900" /><line x1="1056" y1="0" x2="1056" y2="900" /><line x1="1144" y1="0" x2="1144" y2="900" /><line x1="1232" y1="0" x2="1232" y2="900" /><line x1="1320" y1="0" x2="1320" y2="900" /><line x1="1408" y1="0" x2="1408" y2="900" /><line x1="1496" y1="0" x2="1496" y2="900" />
    <line x1="0" y1="0" x2="1600" y2="0" /><line x1="0" y1="88" x2="1600" y2="88" /><line x1="0" y1="176" x2="1600" y2="176" /><line x1="0" y1="264" x2="1600" y2="264" /><line x1="0" y1="352" x2="1600" y2="352" /><line x1="0" y1="440" x2="1600" y2="440" /><line x1="0" y1="528" x2="1600" y2="528" /><line x1="0" y1="616" x2="1600" y2="616" /><line x1="0" y1="704" x2="1600" y2="704" /><line x1="0" y1="792" x2="1600" y2="792" /><line x1="0" y1="880" x2="1600" y2="880" /><line x1="0" y1="968" x2="1600" y2="968" />
  </g>
  <rect x="88" y="84" width="360" height="58" rx="28" fill="rgba(255,255,255,0.08)" />
  <rect x="88" y="162" width="284" height="26" rx="13" fill="rgba(255,255,255,0.08)" />
  <rect x="88" y="204" width="232" height="18" rx="9" fill="rgba(255,255,255,0.08)" />
  
    
    
    <rect x="810" y="164" width="640" height="266" rx="28" fill="rgba(255,255,255,0.08)" stroke="rgba(125, 211, 252, 0.45)" stroke-width="2" />
  
    <g stroke="rgba(255, 255, 255, 0.14)" stroke-width="1">
      <line x1="834" y1="230.5" x2="1426" y2="230.5" />
      <line x1="834" y1="297" x2="1426" y2="297" />
      <line x1="834" y1="363.5" x2="1426" y2="363.5" />
    </g>
    <polyline points="852,348 942,282 1060,310 1172,212 1280,252 1402,236" fill="none" stroke="#7DD3FC" stroke-width="7" stroke-linecap="round" stroke-linejoin="round"  />
    <g fill="#FCA5A5">
      <circle cx="942" cy="282" r="7" />
      <circle cx="1060" cy="310" r="7" />
      <circle cx="1172" cy="212" r="7" />
      <circle cx="1280" cy="252" r="7" />
      <circle cx="1402" cy="236" r="7" />
    </g>
  
    
    <rect x="218" y="256" width="250" height="282" rx="28" fill="rgba(255,255,255,0.08)" stroke="rgba(125, 211, 252, 0.45)" stroke-width="2" />
  
    
    <rect x="520" y="256" width="250" height="282" rx="28" fill="rgba(255,255,255,0.08)" stroke="rgba(252, 165, 165, 0.45)" stroke-width="2" />
  
    <text x="312" y="408" fill="#7DD3FC" font-family="Segoe UI, Arial, sans-serif" font-size="66" font-weight="700">A</text>
    <text x="616" y="408" fill="#FCA5A5" font-family="Segoe UI, Arial, sans-serif" font-size="66" font-weight="700">B</text>
    
    <path d="
    M 1050.32 587.16
    C 1050.32 540.72, 1079.48 516.96, 1100 516.96
    C 1120.52 516.96, 1149.68 540.72, 1149.68 587.16
    L 1138.88 658.44
    L 1100 707.04
    L 1061.12 658.44
    Z
  " fill="rgba(252, 165, 165, 0.88)" stroke="rgba(255, 255, 255, 0.7)" stroke-width="4.32" />
    <polyline points="1077.32,618.48 1095.68,637.92 1129.16,596.88" fill="none" stroke="#7DD3FC" stroke-width="8.64" stroke-linecap="round" stroke-linejoin="round"  />
  
  
</svg>