<?xml version="1.0" encoding="UTF-8"?>
<svg width="1600" height="900" viewBox="0 0 1600 900" fill="none" xmlns="http://www.w3.org/2000/svg">
  <defs>
    <linearGradient id="bg" x1="0" y1="0" x2="1600" y2="900" gradientUnits="userSpaceOnUse">
      <stop offset="0%" stop-color="#08111F" />
      <stop offset="100%" stop-color="#114C6B" />
    </linearGradient>
  </defs>
  <rect width="1600" height="900" fill="url(#bg)" />
  <circle cx="1290" cy="150" r="310" fill="rgba(130, 240, 255, 0.18)" />
  <circle cx="130" cy="770" r="220" fill="rgba(142, 227, 198, 0.12)" />
  <path d="M -120 150 L 240 30 L 1180 900 L 820 900 Z" fill="rgba(255,255,255,0.04)" />
  <g stroke="rgba(130, 240, 255, 0.1)" stroke-width="1">
    <line x1="0" y1="0" x2="0" y2="900" /><line x1="88" y1="0" x2="88" y2="900" /><line x1="176" y1="0" x2="176" y2="900" /><line x1="264" y1="0" x2="264" y2="900" /><line x1="352" y1="0" x2="352" y2="900" /><line x1="440" y1="0" x2="440" y2="900" /><line x1="528" y1="0" x2="528" y2="900" /><line x1="616" y1="0" x2="616" y2="900" /><line x1="704" y1="0" x2="704" y2="900" /><line x1="792" y1="0" x2="792" y2="900" /><line x1="880" y1="0" x2="880" y2="900" /><line x1="968" y1="0" x2="968" y2="900" /><line x1="1056" y1="0" x2="1056" y2="900" /><line x1="1144" y1="0" x2="1144" y2="900" /><line x1="1232" y1="0" x2="1232" y2="900" /><line x1="1320" y1="0" x2="1320" y2="900" /><line x1="1408" y1="0" x2="1408" y2="900" /><line x1="1496" y1="0" x2="1496" y2="900" />
    <line x1="0" y1="0" x2="1600" y2="0" /><line x1="0" y1="88" x2="1600" y2="88" /><line x1="0" y1="176" x2="1600" y2="176" /><line x1="0" y1="264" x2="1600" y2="264" /><line x1="0" y1="352" x2="1600" y2="352" /><line x1="0" y1="440" x2="1600" y2="440" /><line x1="0" y1="528" x2="1600" y2="528" /><line x1="0" y1="616" x2="1600" y2="616" /><line x1="0" y1="704" x2="1600" y2="704" /><line x1="0" y1="792" x2="1600" y2="792" /><line x1="0" y1="880" x2="1600" y2="880" /><line x1="0" y1="968" x2="1600" y2="968" />
  </g>
  <rect x="88" y="84" width="360" height="58" rx="28" fill="rgba(255,255,255,0.08)" />
  <rect x="88" y="162" width="284" height="26" rx="13" fill="rgba(255,255,255,0.08)" />
  <rect x="88" y="204" width="232" height="18" rx="9" fill="rgba(255,255,255,0.08)" />
  
    
    <g transform="translate(368, 372) scale(0.84)">
      <rect x="-108" y="-88" width="216" height="176" rx="30" fill="rgba(130, 240, 255, 0.88)" stroke="rgba(255, 255, 255, 0.74)" stroke-width="6" />
      <circle cx="-36" cy="0" r="18" fill="#8EE3C6" />
      <circle cx="36" cy="0" r="18" fill="#8EE3C6" />
      <rect x="-42" y="44" width="84" height="12" rx="6" fill="#8EE3C6" />
      <line x1="0" y1="-116" x2="0" y2="-152" stroke="rgba(255, 255, 255, 0.78)" stroke-width="6" stroke-linecap="round" />
      <circle cx="0" cy="-170" r="18" fill="#8EE3C6" />
      <line x1="-132" y1="-22" x2="-186" y2="-54" stroke="rgba(130, 240, 255, 0.72)" stroke-width="5" stroke-linecap="round" />
      <line x1="-132" y1="30" x2="-190" y2="64" stroke="rgba(130, 240, 255, 0.72)" stroke-width="5" stroke-linecap="round" />
      <line x1="132" y1="-22" x2="186" y2="-54" stroke="rgba(130, 240, 255, 0.72)" stroke-width="5" stroke-linecap="round" />
      <line x1="132" y1="30" x2="190" y2="64" stroke="rgba(130, 240, 255, 0.72)" stroke-width="5" stroke-linecap="round" />
      <circle cx="-186" cy="-54" r="9" fill="#8EE3C6" />
      <circle cx="-190" cy="64" r="9" fill="#8EE3C6" />
      <circle cx="186" cy="-54" r="9" fill="#8EE3C6" />
      <circle cx="190" cy="64" r="9" fill="#8EE3C6" />
    </g>
  
    <text x="188" y="238" fill="#8EE3C6" font-family="Segoe UI, Arial, sans-serif" font-size="66" font-weight="700">&lt;/&gt;</text>
    
    
    <rect x="852" y="184" width="584" height="332" rx="28" fill="rgba(255,255,255,0.08)" stroke="rgba(130, 240, 255, 0.45)" stroke-width="2" />
  
    <g stroke="rgba(255, 255, 255, 0.14)" stroke-width="1">
      <line x1="876" y1="267" x2="1412" y2="267" />
      <line x1="876" y1="350" x2="1412" y2="350" />
      <line x1="876" y1="433" x2="1412" y2="433" />
    </g>
    <polyline points="894,434 984,368 1102,396 1214,298 1322,338 1388,256" fill="none" stroke="#82F0FF" stroke-width="7" stroke-linecap="round" stroke-linejoin="round"  />
    <g fill="#8EE3C6">
      <circle cx="984" cy="368" r="7" />
      <circle cx="1102" cy="396" r="7" />
      <circle cx="1214" cy="298" r="7" />
      <circle cx="1322" cy="338" r="7" />
      <circle cx="1388" cy="256" r="7" />
    </g>
  
    
    <polyline points="196,670 342,614 474,636 644,530 776,436" fill="none" stroke="#8EE3C6" stroke-width="8" stroke-linecap="round" stroke-linejoin="round"  />
    <polygon points="776,436 748,418 758,390" fill="#8EE3C6" />
  
  
</svg>