<?xml version="1.0" encoding="UTF-8"?>
<svg width="1600" height="900" viewBox="0 0 1600 900" fill="none" xmlns="http://www.w3.org/2000/svg">
  <defs>
    <linearGradient id="bg" x1="0" y1="0" x2="1600" y2="900" gradientUnits="userSpaceOnUse">
      <stop offset="0%" stop-color="#0B1521" />
      <stop offset="100%" stop-color="#254768" />
    </linearGradient>
  </defs>
  <rect width="1600" height="900" fill="url(#bg)" />
  <circle cx="1290" cy="150" r="310" fill="rgba(124, 217, 255, 0.18)" />
  <circle cx="130" cy="770" r="220" fill="rgba(212, 242, 131, 0.12)" />
  <path d="M -120 150 L 240 30 L 1180 900 L 820 900 Z" fill="rgba(255,255,255,0.04)" />
  <g stroke="rgba(124, 217, 255, 0.1)" stroke-width="1">
    <line x1="0" y1="0" x2="0" y2="900" /><line x1="88" y1="0" x2="88" y2="900" /><line x1="176" y1="0" x2="176" y2="900" /><line x1="264" y1="0" x2="264" y2="900" /><line x1="352" y1="0" x2="352" y2="900" /><line x1="440" y1="0" x2="440" y2="900" /><line x1="528" y1="0" x2="528" y2="900" /><line x1="616" y1="0" x2="616" y2="900" /><line x1="704" y1="0" x2="704" y2="900" /><line x1="792" y1="0" x2="792" y2="900" /><line x1="880" y1="0" x2="880" y2="900" /><line x1="968" y1="0" x2="968" y2="900" /><line x1="1056" y1="0" x2="1056" y2="900" /><line x1="1144" y1="0" x2="1144" y2="900" /><line x1="1232" y1="0" x2="1232" y2="900" /><line x1="1320" y1="0" x2="1320" y2="900" /><line x1="1408" y1="0" x2="1408" y2="900" /><line x1="1496" y1="0" x2="1496" y2="900" />
    <line x1="0" y1="0" x2="1600" y2="0" /><line x1="0" y1="88" x2="1600" y2="88" /><line x1="0" y1="176" x2="1600" y2="176" /><line x1="0" y1="264" x2="1600" y2="264" /><line x1="0" y1="352" x2="1600" y2="352" /><line x1="0" y1="440" x2="1600" y2="440" /><line x1="0" y1="528" x2="1600" y2="528" /><line x1="0" y1="616" x2="1600" y2="616" /><line x1="0" y1="704" x2="1600" y2="704" /><line x1="0" y1="792" x2="1600" y2="792" /><line x1="0" y1="880" x2="1600" y2="880" /><line x1="0" y1="968" x2="1600" y2="968" />
  </g>
  <rect x="88" y="84" width="360" height="58" rx="28" fill="rgba(255,255,255,0.08)" />
  <rect x="88" y="162" width="284" height="26" rx="13" fill="rgba(255,255,255,0.08)" />
  <rect x="88" y="204" width="232" height="18" rx="9" fill="rgba(255,255,255,0.08)" />
  
    
    <rect x="212" y="186" width="394" height="286" rx="28" fill="rgba(255,255,255,0.08)" stroke="rgba(124, 217, 255, 0.45)" stroke-width="2" />
  
    
    <rect x="336" y="282" width="394" height="286" rx="28" fill="rgba(255,255,255,0.08)" stroke="rgba(212, 242, 131, 0.45)" stroke-width="2" />
  
    
    
    <rect x="826" y="176" width="612" height="330" rx="28" fill="rgba(255,255,255,0.08)" stroke="rgba(124, 217, 255, 0.45)" stroke-width="2" />
  
    <g stroke="rgba(255, 255, 255, 0.14)" stroke-width="1">
      <line x1="850" y1="258.5" x2="1414" y2="258.5" />
      <line x1="850" y1="341" x2="1414" y2="341" />
      <line x1="850" y1="423.5" x2="1414" y2="423.5" />
    </g>
    <polyline points="868,424 958,358 1076,386 1188,288 1296,328 1390,248" fill="none" stroke="#7CD9FF" stroke-width="7" stroke-linecap="round" stroke-linejoin="round"  />
    <g fill="#D4F283">
      <circle cx="958" cy="358" r="7" />
      <circle cx="1076" cy="386" r="7" />
      <circle cx="1188" cy="288" r="7" />
      <circle cx="1296" cy="328" r="7" />
      <circle cx="1390" cy="248" r="7" />
    </g>
  
    
    <path d="
    M 1138.64 569.32
    C 1138.64 519.44, 1169.96 493.92, 1192 493.92
    C 1214.04 493.92, 1245.36 519.44, 1245.36 569.32
    L 1233.76 645.88
    L 1192 698.08
    L 1150.24 645.88
    Z
  " fill="rgba(124, 217, 255, 0.88)" stroke="rgba(255, 255, 255, 0.7)" stroke-width="4.64" />
    <polyline points="1167.64,602.96 1187.36,623.84 1223.32,579.76" fill="none" stroke="#D4F283" stroke-width="9.28" stroke-linecap="round" stroke-linejoin="round"  />
  
  
</svg>