<?xml version="1.0" encoding="UTF-8"?>
<svg width="1600" height="900" viewBox="0 0 1600 900" fill="none" xmlns="http://www.w3.org/2000/svg">
  <defs>
    <linearGradient id="bg" x1="0" y1="0" x2="1600" y2="900" gradientUnits="userSpaceOnUse">
      <stop offset="0%" stop-color="#0C1826" />
      <stop offset="100%" stop-color="#215174" />
    </linearGradient>
  </defs>
  <rect width="1600" height="900" fill="url(#bg)" />
  <circle cx="1290" cy="150" r="310" fill="rgba(129, 230, 217, 0.18)" />
  <circle cx="130" cy="770" r="220" fill="rgba(140, 203, 255, 0.12)" />
  <path d="M -120 150 L 240 30 L 1180 900 L 820 900 Z" fill="rgba(255,255,255,0.04)" />
  <g stroke="rgba(129, 230, 217, 0.1)" stroke-width="1">
    <line x1="0" y1="0" x2="0" y2="900" /><line x1="88" y1="0" x2="88" y2="900" /><line x1="176" y1="0" x2="176" y2="900" /><line x1="264" y1="0" x2="264" y2="900" /><line x1="352" y1="0" x2="352" y2="900" /><line x1="440" y1="0" x2="440" y2="900" /><line x1="528" y1="0" x2="528" y2="900" /><line x1="616" y1="0" x2="616" y2="900" /><line x1="704" y1="0" x2="704" y2="900" /><line x1="792" y1="0" x2="792" y2="900" /><line x1="880" y1="0" x2="880" y2="900" /><line x1="968" y1="0" x2="968" y2="900" /><line x1="1056" y1="0" x2="1056" y2="900" /><line x1="1144" y1="0" x2="1144" y2="900" /><line x1="1232" y1="0" x2="1232" y2="900" /><line x1="1320" y1="0" x2="1320" y2="900" /><line x1="1408" y1="0" x2="1408" y2="900" /><line x1="1496" y1="0" x2="1496" y2="900" />
    <line x1="0" y1="0" x2="1600" y2="0" /><line x1="0" y1="88" x2="1600" y2="88" /><line x1="0" y1="176" x2="1600" y2="176" /><line x1="0" y1="264" x2="1600" y2="264" /><line x1="0" y1="352" x2="1600" y2="352" /><line x1="0" y1="440" x2="1600" y2="440" /><line x1="0" y1="528" x2="1600" y2="528" /><line x1="0" y1="616" x2="1600" y2="616" /><line x1="0" y1="704" x2="1600" y2="704" /><line x1="0" y1="792" x2="1600" y2="792" /><line x1="0" y1="880" x2="1600" y2="880" /><line x1="0" y1="968" x2="1600" y2="968" />
  </g>
  <rect x="88" y="84" width="360" height="58" rx="28" fill="rgba(255,255,255,0.08)" />
  <rect x="88" y="162" width="284" height="26" rx="13" fill="rgba(255,255,255,0.08)" />
  <rect x="88" y="204" width="232" height="18" rx="9" fill="rgba(255,255,255,0.08)" />
  
    
    <circle cx="382" cy="304" r="46" fill="#81E6D9" />
    <circle cx="280" cy="326" r="36" fill="#8CCBFF" />
    <circle cx="484" cy="326" r="36" fill="#8CCBFF" />
    <rect x="296" y="364" width="172" height="94" rx="36" fill="#81E6D9" />
    <rect x="214" y="380" width="106" height="70" rx="30" fill="#8CCBFF" />
    <rect x="444" y="380" width="106" height="70" rx="30" fill="#8CCBFF" />
  
    <polyline points="538,384 768,384 928,258" fill="none" stroke="#8CCBFF" stroke-width="8" stroke-linecap="round" stroke-linejoin="round"  />
    <polyline points="768,384 928,510" fill="none" stroke="#8CCBFF" stroke-width="8" stroke-linecap="round" stroke-linejoin="round"  />
    
    <rect x="920" y="170" width="462" height="192" rx="28" fill="rgba(255,255,255,0.08)" stroke="rgba(129, 230, 217, 0.45)" stroke-width="2" />
  
    
    <rect x="920" y="410" width="462" height="192" rx="28" fill="rgba(255,255,255,0.08)" stroke="rgba(140, 203, 255, 0.45)" stroke-width="2" />
  
  
</svg>