<?xml version="1.0" encoding="UTF-8"?>
<svg width="1600" height="900" viewBox="0 0 1600 900" fill="none" xmlns="http://www.w3.org/2000/svg">
  <defs>
    <linearGradient id="bg" x1="0" y1="0" x2="1600" y2="900" gradientUnits="userSpaceOnUse">
      <stop offset="0%" stop-color="#170D1E" />
      <stop offset="100%" stop-color="#6B3148" />
    </linearGradient>
  </defs>
  <rect width="1600" height="900" fill="url(#bg)" />
  <circle cx="1290" cy="150" r="310" fill="rgba(255, 184, 108, 0.18)" />
  <circle cx="130" cy="770" r="220" fill="rgba(255, 227, 138, 0.12)" />
  <path d="M -120 150 L 240 30 L 1180 900 L 820 900 Z" fill="rgba(255,255,255,0.04)" />
  <g stroke="rgba(255, 184, 108, 0.1)" stroke-width="1">
    <line x1="0" y1="0" x2="0" y2="900" /><line x1="88" y1="0" x2="88" y2="900" /><line x1="176" y1="0" x2="176" y2="900" /><line x1="264" y1="0" x2="264" y2="900" /><line x1="352" y1="0" x2="352" y2="900" /><line x1="440" y1="0" x2="440" y2="900" /><line x1="528" y1="0" x2="528" y2="900" /><line x1="616" y1="0" x2="616" y2="900" /><line x1="704" y1="0" x2="704" y2="900" /><line x1="792" y1="0" x2="792" y2="900" /><line x1="880" y1="0" x2="880" y2="900" /><line x1="968" y1="0" x2="968" y2="900" /><line x1="1056" y1="0" x2="1056" y2="900" /><line x1="1144" y1="0" x2="1144" y2="900" /><line x1="1232" y1="0" x2="1232" y2="900" /><line x1="1320" y1="0" x2="1320" y2="900" /><line x1="1408" y1="0" x2="1408" y2="900" /><line x1="1496" y1="0" x2="1496" y2="900" />
    <line x1="0" y1="0" x2="1600" y2="0" /><line x1="0" y1="88" x2="1600" y2="88" /><line x1="0" y1="176" x2="1600" y2="176" /><line x1="0" y1="264" x2="1600" y2="264" /><line x1="0" y1="352" x2="1600" y2="352" /><line x1="0" y1="440" x2="1600" y2="440" /><line x1="0" y1="528" x2="1600" y2="528" /><line x1="0" y1="616" x2="1600" y2="616" /><line x1="0" y1="704" x2="1600" y2="704" /><line x1="0" y1="792" x2="1600" y2="792" /><line x1="0" y1="880" x2="1600" y2="880" /><line x1="0" y1="968" x2="1600" y2="968" />
  </g>
  <rect x="88" y="84" width="360" height="58" rx="28" fill="rgba(255,255,255,0.08)" />
  <rect x="88" y="162" width="284" height="26" rx="13" fill="rgba(255,255,255,0.08)" />
  <rect x="88" y="204" width="232" height="18" rx="9" fill="rgba(255,255,255,0.08)" />
  
    
    <g>
      
        <line x1="338" y1="494" x2="338" y2="682" stroke="rgba(255, 255, 255, 0.74)" stroke-width="4" stroke-linecap="round" />
        <rect x="320" y="536" width="36" height="120" rx="8" fill="#FFB86C" />
      
        <line x1="396" y1="532" x2="396" y2="720" stroke="rgba(255, 255, 255, 0.74)" stroke-width="4" stroke-linecap="round" />
        <rect x="378" y="592" width="36" height="90" rx="8" fill="#FFE38A" />
      
        <line x1="460" y1="426" x2="460" y2="700" stroke="rgba(255, 255, 255, 0.74)" stroke-width="4" stroke-linecap="round" />
        <rect x="442" y="482" width="36" height="144" rx="8" fill="#FFB86C" />
      
        <line x1="526" y1="496" x2="526" y2="724" stroke="rgba(255, 255, 255, 0.74)" stroke-width="4" stroke-linecap="round" />
        <rect x="508" y="554" width="36" height="110" rx="8" fill="#FFE38A" />
      
        <line x1="592" y1="386" x2="592" y2="672" stroke="rgba(255, 255, 255, 0.74)" stroke-width="4" stroke-linecap="round" />
        <rect x="574" y="438" width="36" height="178" rx="8" fill="#FFB86C" />
      
    </g>
  
    
    
    <rect x="846" y="188" width="584" height="292" rx="28" fill="rgba(255,255,255,0.08)" stroke="rgba(255, 184, 108, 0.45)" stroke-width="2" />
  
    <g stroke="rgba(255, 255, 255, 0.14)" stroke-width="1">
      <line x1="870" y1="261" x2="1406" y2="261" />
      <line x1="870" y1="334" x2="1406" y2="334" />
      <line x1="870" y1="407" x2="1406" y2="407" />
    </g>
    <polyline points="888,398 978,332 1096,360 1208,262 1316,302 1382,260" fill="none" stroke="#FFB86C" stroke-width="7" stroke-linecap="round" stroke-linejoin="round"  />
    <g fill="#FFE38A">
      <circle cx="978" cy="332" r="7" />
      <circle cx="1096" cy="360" r="7" />
      <circle cx="1208" cy="262" r="7" />
      <circle cx="1316" cy="302" r="7" />
      <circle cx="1382" cy="260" r="7" />
    </g>
  
    <circle cx="294" cy="292" r="55" fill="none" stroke="#FFFFFF" stroke-width="8" opacity="0.72" />
    <circle cx="578" cy="222" r="66" fill="none" stroke="#FFFFFF" stroke-width="8" opacity="0.72" />
    <circle cx="698" cy="372" r="47" fill="none" stroke="#FFFFFF" stroke-width="8" opacity="0.72" />
  
</svg>