<?xml version="1.0" encoding="UTF-8"?>
<svg width="1600" height="900" viewBox="0 0 1600 900" fill="none" xmlns="http://www.w3.org/2000/svg">
  <defs>
    <linearGradient id="bg" x1="0" y1="0" x2="1600" y2="900" gradientUnits="userSpaceOnUse">
      <stop offset="0%" stop-color="#190E23" />
      <stop offset="100%" stop-color="#582B8C" />
    </linearGradient>
  </defs>
  <rect width="1600" height="900" fill="url(#bg)" />
  <circle cx="1290" cy="150" r="310" fill="rgba(255, 140, 107, 0.18)" />
  <circle cx="130" cy="770" r="220" fill="rgba(247, 215, 123, 0.12)" />
  <path d="M -120 150 L 240 30 L 1180 900 L 820 900 Z" fill="rgba(255,255,255,0.04)" />
  <g stroke="rgba(255, 140, 107, 0.1)" stroke-width="1">
    <line x1="0" y1="0" x2="0" y2="900" /><line x1="88" y1="0" x2="88" y2="900" /><line x1="176" y1="0" x2="176" y2="900" /><line x1="264" y1="0" x2="264" y2="900" /><line x1="352" y1="0" x2="352" y2="900" /><line x1="440" y1="0" x2="440" y2="900" /><line x1="528" y1="0" x2="528" y2="900" /><line x1="616" y1="0" x2="616" y2="900" /><line x1="704" y1="0" x2="704" y2="900" /><line x1="792" y1="0" x2="792" y2="900" /><line x1="880" y1="0" x2="880" y2="900" /><line x1="968" y1="0" x2="968" y2="900" /><line x1="1056" y1="0" x2="1056" y2="900" /><line x1="1144" y1="0" x2="1144" y2="900" /><line x1="1232" y1="0" x2="1232" y2="900" /><line x1="1320" y1="0" x2="1320" y2="900" /><line x1="1408" y1="0" x2="1408" y2="900" /><line x1="1496" y1="0" x2="1496" y2="900" />
    <line x1="0" y1="0" x2="1600" y2="0" /><line x1="0" y1="88" x2="1600" y2="88" /><line x1="0" y1="176" x2="1600" y2="176" /><line x1="0" y1="264" x2="1600" y2="264" /><line x1="0" y1="352" x2="1600" y2="352" /><line x1="0" y1="440" x2="1600" y2="440" /><line x1="0" y1="528" x2="1600" y2="528" /><line x1="0" y1="616" x2="1600" y2="616" /><line x1="0" y1="704" x2="1600" y2="704" /><line x1="0" y1="792" x2="1600" y2="792" /><line x1="0" y1="880" x2="1600" y2="880" /><line x1="0" y1="968" x2="1600" y2="968" />
  </g>
  <rect x="88" y="84" width="360" height="58" rx="28" fill="rgba(255,255,255,0.08)" />
  <rect x="88" y="162" width="284" height="26" rx="13" fill="rgba(255,255,255,0.08)" />
  <rect x="88" y="204" width="232" height="18" rx="9" fill="rgba(255,255,255,0.08)" />
  
    
    <path d="
    M 283.4 283.7
    C 283.4 193.4, 340.1 147.2, 380 147.2
    C 419.9 147.2, 476.6 193.4, 476.6 283.7
    L 455.6 422.3
    L 380 516.8
    L 304.4 422.3
    Z
  " fill="rgba(255, 140, 107, 0.88)" stroke="rgba(255, 255, 255, 0.7)" stroke-width="8.4" />
    <polyline points="335.9,344.6 371.6,382.4 436.7,302.6" fill="none" stroke="#F7D77B" stroke-width="16.8" stroke-linecap="round" stroke-linejoin="round"  />
  
    
    
    <rect x="836" y="186" width="598" height="314" rx="28" fill="rgba(255,255,255,0.08)" stroke="rgba(255, 140, 107, 0.45)" stroke-width="2" />
  
    <g stroke="rgba(255, 255, 255, 0.14)" stroke-width="1">
      <line x1="860" y1="264.5" x2="1410" y2="264.5" />
      <line x1="860" y1="343" x2="1410" y2="343" />
      <line x1="860" y1="421.5" x2="1410" y2="421.5" />
    </g>
    <polyline points="878,418 968,352 1086,380 1198,282 1306,322 1386,258" fill="none" stroke="#FF8C6B" stroke-width="7" stroke-linecap="round" stroke-linejoin="round"  />
    <g fill="#F7D77B">
      <circle cx="968" cy="352" r="7" />
      <circle cx="1086" cy="380" r="7" />
      <circle cx="1198" cy="282" r="7" />
      <circle cx="1306" cy="322" r="7" />
      <circle cx="1386" cy="258" r="7" />
    </g>
  
    <path d="M 1048 552 A 110 110 0 0 1 1158 662 L 1048 662 Z" fill="#F7D77B" />
    <path d="M 1048 552 A 110 110 0 0 1 1146 592 L 1048 662 Z" fill="#FF8C6B" opacity="0.68" />
    <line x1="1228" y1="662" x2="1432" y2="662" stroke="#FFFFFF" stroke-width="10" stroke-linecap="round" />
    <line x1="1330" y1="580" x2="1330" y2="744" stroke="#FFFFFF" stroke-width="10" stroke-linecap="round" />
  
</svg>