<?xml version="1.0" encoding="UTF-8"?>
<svg width="1600" height="900" viewBox="0 0 1600 900" fill="none" xmlns="http://www.w3.org/2000/svg">
  <defs>
    <linearGradient id="bg" x1="0" y1="0" x2="1600" y2="900" gradientUnits="userSpaceOnUse">
      <stop offset="0%" stop-color="#1A1023" />
      <stop offset="100%" stop-color="#7C3AED" />
    </linearGradient>
  </defs>
  <rect width="1600" height="900" fill="url(#bg)" />
  <circle cx="1290" cy="150" r="310" fill="rgba(125, 235, 255, 0.18)" />
  <circle cx="130" cy="770" r="220" fill="rgba(253, 186, 116, 0.12)" />
  <path d="M -120 150 L 240 30 L 1180 900 L 820 900 Z" fill="rgba(255,255,255,0.04)" />
  <g stroke="rgba(125, 235, 255, 0.1)" stroke-width="1">
    <line x1="0" y1="0" x2="0" y2="900" /><line x1="88" y1="0" x2="88" y2="900" /><line x1="176" y1="0" x2="176" y2="900" /><line x1="264" y1="0" x2="264" y2="900" /><line x1="352" y1="0" x2="352" y2="900" /><line x1="440" y1="0" x2="440" y2="900" /><line x1="528" y1="0" x2="528" y2="900" /><line x1="616" y1="0" x2="616" y2="900" /><line x1="704" y1="0" x2="704" y2="900" /><line x1="792" y1="0" x2="792" y2="900" /><line x1="880" y1="0" x2="880" y2="900" /><line x1="968" y1="0" x2="968" y2="900" /><line x1="1056" y1="0" x2="1056" y2="900" /><line x1="1144" y1="0" x2="1144" y2="900" /><line x1="1232" y1="0" x2="1232" y2="900" /><line x1="1320" y1="0" x2="1320" y2="900" /><line x1="1408" y1="0" x2="1408" y2="900" /><line x1="1496" y1="0" x2="1496" y2="900" />
    <line x1="0" y1="0" x2="1600" y2="0" /><line x1="0" y1="88" x2="1600" y2="88" /><line x1="0" y1="176" x2="1600" y2="176" /><line x1="0" y1="264" x2="1600" y2="264" /><line x1="0" y1="352" x2="1600" y2="352" /><line x1="0" y1="440" x2="1600" y2="440" /><line x1="0" y1="528" x2="1600" y2="528" /><line x1="0" y1="616" x2="1600" y2="616" /><line x1="0" y1="704" x2="1600" y2="704" /><line x1="0" y1="792" x2="1600" y2="792" /><line x1="0" y1="880" x2="1600" y2="880" /><line x1="0" y1="968" x2="1600" y2="968" />
  </g>
  <rect x="88" y="84" width="360" height="58" rx="28" fill="rgba(255,255,255,0.08)" />
  <rect x="88" y="162" width="284" height="26" rx="13" fill="rgba(255,255,255,0.08)" />
  <rect x="88" y="204" width="232" height="18" rx="9" fill="rgba(255,255,255,0.08)" />
  
    
    
    <rect x="842" y="182" width="592" height="304" rx="28" fill="rgba(255,255,255,0.08)" stroke="rgba(125, 235, 255, 0.45)" stroke-width="2" />
  
    <g stroke="rgba(255, 255, 255, 0.14)" stroke-width="1">
      <line x1="866" y1="258" x2="1410" y2="258" />
      <line x1="866" y1="334" x2="1410" y2="334" />
      <line x1="866" y1="410" x2="1410" y2="410" />
    </g>
    <polyline points="884,404 974,338 1092,366 1204,268 1312,308 1386,254" fill="none" stroke="#7DEBFF" stroke-width="7" stroke-linecap="round" stroke-linejoin="round"  />
    <g fill="#FDBA74">
      <circle cx="974" cy="338" r="7" />
      <circle cx="1092" cy="366" r="7" />
      <circle cx="1204" cy="268" r="7" />
      <circle cx="1312" cy="308" r="7" />
      <circle cx="1386" cy="254" r="7" />
    </g>
  
    <circle cx="402" cy="360" r="164" fill="none" stroke="#7DEBFF" stroke-width="12" />
    <circle cx="402" cy="360" r="96" fill="none" stroke="#FDBA74" stroke-width="6" />
    <polyline points="210,640 344,640 392,572 432,694 474,612 620,612" fill="none" stroke="#FFFFFF" stroke-width="10" stroke-linecap="round" stroke-linejoin="round"  />
  
</svg>